<svg height="512" viewBox="0 0 64 64" width="512" xmlns="http://www.w3.org/2000/svg"><g fill="#57a4ff"><circle cx="32" cy="59" r="3"/><circle cx="23" cy="9" r="3"/><circle cx="41" cy="16" r="3"/><circle cx="23" cy="47" r="3"/></g><path d="m39 33a1 1 0 0 0 -1 1v1a1 1 0 0 0 2 0v-1a1 1 0 0 0 -1-1z" fill="#004fac"/><path d="m41.973 52.134a1.026 1.026 0 0 0 .027-.134v-7a1 1 0 0 0 -.594-.914l-8.406-3.736v-9.815l5-3.335v3.8a1 1 0 0 0 2 0v-5a1.133 1.133 0 0 0 -.023-.116l1.578-1.052a1 1 0 0 0 .445-.832v-4a1.026 1.026 0 0 0 -.027-.134 4 4 0 1 0 -1.946 0 1.026 1.026 0 0 0 -.027.134v3.465l-7 4.667v-19.132a1.026 1.026 0 0 0 -.027-.134 4 4 0 1 0 -1.946 0 1.026 1.026 0 0 0 -.027.134v13.461l-2.156-.961a.969.969 0 0 0 .156-.5v-5a1 1 0 0 0 -2 0v4.684l-3-1.334v-6.35a1.026 1.026 0 0 0 -.027-.134 4 4 0 1 0 -1.946 0 1.026 1.026 0 0 0 -.027.134v7a1 1 0 0 0 .594.914l8.406 3.736v7.815l-5 3.335v-3.8a1 1 0 0 0 -2 0v5a1.133 1.133 0 0 0 .023.116l-1.578 1.052a1 1 0 0 0 -.445.832v4a1.026 1.026 0 0 0 .027.134 4 4 0 1 0 1.946 0 1.026 1.026 0 0 0 .027-.134v-3.465l7-4.667v20.274a4 4 0 1 0 2 0v-12.6l2.156.958a.969.969 0 0 0 -.156.5v5a1 1 0 0 0 2 0v-4.684l3 1.334v6.35a1.026 1.026 0 0 0 .027.134 4 4 0 1 0 1.946 0zm-2.973-36.134a2 2 0 1 1 2 2 2 2 0 0 1 -2-2zm-18-7a2 2 0 1 1 2 2 2 2 0 0 1 -2-2zm4 38a2 2 0 1 1 -2-2 2 2 0 0 1 2 2zm5-42a2 2 0 1 1 2 2 2 2 0 0 1 -2-2zm4 54a2 2 0 1 1 -2-2 2 2 0 0 1 2 2zm7-1a2 2 0 1 1 2-2 2 2 0 0 1 -2 2z" fill="#004fac"/><path d="m25 30a1 1 0 0 0 1-1v-1a1 1 0 0 0 -2 0v1a1 1 0 0 0 1 1z" fill="#004fac"/></svg>