<svg id="Capa_1" enable-background="new 0 0 64 64" height="512" viewBox="0 0 64 64" width="512" xmlns="http://www.w3.org/2000/svg"><g fill="#57a4ff"><circle cx="11" cy="26" r="2"/><circle cx="19" cy="26" r="2"/><circle cx="19" cy="10" r="2"/><circle cx="27" cy="26" r="2"/><path d="m60 32-5.18 2-1.82 17h-12.44l-1 11.03-20.56-.03 2.52-22.9c-1.443-1.211-2.718-2.61-3.79-4.16.21.02.42.04.63.04.339 0 .611.019.64.02.232.006 4.128-.236 7.458-2.25.594-.359 6.602-4.117 7.5-10.708.876-6.43-3.412-13.345-10.728-16.432 1.315-.862 7.351-4.611 15.395-3.193 1.378.243 8.914 1.713 13.744 8.799 3.105 4.557 3.535 9.152 3.601 11.174l1.03 3.61z"/><circle cx="19" cy="10" r="2"/><circle cx="19" cy="26" r="2"/><circle cx="11" cy="26" r="2"/><circle cx="27" cy="26" r="2"/></g><path d="m60.9 31.553-2.958-5.917-.972-3.4c-.402-12.123-10.556-21.625-22.679-21.223-3.991.132-7.87 1.35-11.221 3.523-1.328-.355-2.696-.535-4.07-.536-8.83-.011-15.997 7.138-16.008 15.968-.01 8.14 6.097 14.988 14.185 15.906.958 1.332 2.062 2.553 3.291 3.64l-2.462 22.377c-.06.549.336 1.043.885 1.103.036.004.073.006.109.006l20.56.03c.519.002.953-.393 1-.91l.913-10.12h11.527c.511 0 .94-.386.994-.894l1.756-16.393 4.61-1.78c.515-.199.772-.777.574-1.293-.011-.03-.024-.059-.039-.087zm-41.9 2.447c-.4 0-.786-.019-1.175-.056h-.007-.005c-7.701-.69-13.385-7.492-12.695-15.194.645-7.195 6.658-12.718 13.882-12.75 1.335-.003 2.664.189 3.944.568h.005c7.418 2.18 11.665 9.961 9.485 17.379-1.752 5.961-7.222 10.054-13.434 10.053zm35.46-.933c-.35.135-.594.454-.634.827l-1.726 16.106h-11.54c-.519-.002-.953.393-1 .91l-.917 10.118-18.527-.028 2.4-21.792c.036-.332-.095-.66-.351-.875-.855-.717-1.648-1.505-2.373-2.353 8.826-.439 15.624-7.95 15.185-16.775-.299-6.019-3.956-11.359-9.459-13.816 9.718-5.233 21.838-1.597 27.071 8.121 1.477 2.743 2.293 5.794 2.381 8.909.003.083.015.166.038.246l1.03 3.609c.018.059.04.117.067.173l2.508 5.016z" fill="#004fac"/><path d="m30 26c-.006-1.28-.823-2.415-2.035-2.827.017-.056.029-.114.035-.173v-2c0-.446-.297-.839-.726-.961l-7-2c-.09-.021-.182-.028-.274-.022v-5.017c-.006-.059-.018-.117-.035-.173 1.569-.533 2.409-2.237 1.876-3.806s-2.237-2.409-3.806-1.876-2.409 2.237-1.876 3.806c.3.883.993 1.576 1.876 1.876-.017.056-.029.114-.035.173v3.307l-7.352 2.756c-.39.147-.648.52-.648.937v3c.006.059.018.117.035.173-1.569.533-2.409 2.237-1.876 3.806s2.237 2.409 3.806 1.876 2.409-2.237 1.876-3.806c-.3-.883-.993-1.576-1.876-1.876.017-.056.029-.114.035-.173v-2.307l6-2.25v4.557c.006.059.018.117.035.173-1.569.533-2.409 2.237-1.876 3.806s2.237 2.409 3.806 1.876 2.409-2.237 1.876-3.806c-.3-.883-.993-1.576-1.876-1.876.017-.056.029-.114.035-.173v-2.96l6 1.714v1.246c.006.059.018.117.035.173-1.564.536-2.397 2.239-1.861 3.803s2.239 2.397 3.803 1.861c1.212-.415 2.025-1.556 2.023-2.837zm-19 1c-.552 0-1-.448-1-1s.448-1 1-1 1 .448 1 1-.448 1-1 1zm8-18c.552 0 1 .448 1 1s-.448 1-1 1-1-.448-1-1 .448-1 1-1zm0 18c-.552 0-1-.448-1-1s.448-1 1-1 1 .448 1 1-.448 1-1 1zm8 0c-.552 0-1-.448-1-1s.448-1 1-1 1 .448 1 1-.448 1-1 1z" fill="#004fac"/><path d="m24 17c.552 0 1-.448 1-1v-2c0-.552-.448-1-1-1s-1 .448-1 1v2c0 .552.448 1 1 1z" fill="#004fac"/></svg>