<?xml version="1.0"?>
<svg xmlns="http://www.w3.org/2000/svg" viewBox="0 0 64 64" width="512" height="512"><g id="Ai-5" data-name="Ai"><path d="M60,32l-5.18,2L53,51H40.56l-1,11.03L19,62l2.52-22.9a21.1,21.1,0,0,1-3.79-4.16c.42.04.84.06,1.27.06A15,15,0,0,0,23.23,5.61,20.982,20.982,0,0,1,55.97,22.39L57,26Z" style="fill:#57a4ff"/><path d="M30,22V18H26.738a7.968,7.968,0,0,0-.852-2.058l2.306-2.306-2.828-2.828-2.306,2.306A7.968,7.968,0,0,0,21,12.262V9H17v3.262a7.968,7.968,0,0,0-2.058.852l-2.306-2.306L9.808,13.636l2.306,2.306A7.968,7.968,0,0,0,11.262,18H8v4h3.262a7.968,7.968,0,0,0,.852,2.058L9.808,26.364l2.828,2.828,2.306-2.306A7.968,7.968,0,0,0,17,27.738V31h4V27.738a7.968,7.968,0,0,0,2.058-.852l2.306,2.306,2.828-2.828-2.306-2.306A7.968,7.968,0,0,0,26.738,22Z" style="fill:#57a4ff"/><circle cx="19" cy="20" r="2" style="fill:#57a4ff"/><path d="M60.9,31.553l-2.959-5.917-.971-3.4a21.964,21.964,0,0,0-33.9-17.7A15.8,15.8,0,0,0,19,4a15.988,15.988,0,0,0-1.823,31.874,22.077,22.077,0,0,0,3.291,3.64L18.006,61.891A1,1,0,0,0,19,63l20.56.03h0a1,1,0,0,0,1-.91L41.474,52H53a1,1,0,0,0,.994-.894l1.755-16.393,4.611-1.78a1,1,0,0,0,.535-1.38ZM19,34c-.4,0-.787-.019-1.175-.056h-.007l-.005,0A14,14,0,0,1,19,6a13.779,13.779,0,0,1,3.944.568h0l0,0A14,14,0,0,1,19,34Zm35.459-.933a1,1,0,0,0-.633.827L52.1,50H40.56a1,1,0,0,0-1,.91l-.917,10.118L20.116,61l2.4-21.792a1,1,0,0,0-.35-.875,20.219,20.219,0,0,1-2.374-2.353A16,16,0,0,0,25.518,5.389,19.985,19.985,0,0,1,54.97,22.419a1.033,1.033,0,0,0,.038.246l1.031,3.609a.95.95,0,0,0,.066.173l2.509,5.016Z" style="fill:#004fac"/><path d="M28.9,25.657l-1.783-1.784A9.266,9.266,0,0,0,27.478,23H30a1,1,0,0,0,1-1V18a1,1,0,0,0-1-1H27.478a9.266,9.266,0,0,0-.362-.873L28.9,14.343a1,1,0,0,0,0-1.414L26.071,10.1a1,1,0,0,0-1.414,0l-1.784,1.783A9.266,9.266,0,0,0,22,11.522V9a1,1,0,0,0-1-1H17a1,1,0,0,0-1,1v2.522a9.266,9.266,0,0,0-.873.362L13.343,10.1a1,1,0,0,0-1.414,0L9.1,12.929a1,1,0,0,0,0,1.414l1.783,1.784a9.266,9.266,0,0,0-.362.873H8a1,1,0,0,0-1,1v4a1,1,0,0,0,1,1h2.522a9.266,9.266,0,0,0,.362.873L9.1,25.657a1,1,0,0,0,0,1.414L11.929,29.9a1,1,0,0,0,1.414,0l1.784-1.783a9.266,9.266,0,0,0,.873.362V31a1,1,0,0,0,1,1h4a1,1,0,0,0,1-1V28.478a9.266,9.266,0,0,0,.873-.362L24.657,29.9a1,1,0,0,0,1.414,0L28.9,27.071A1,1,0,0,0,28.9,25.657Zm-3.535,2.121-1.6-1.6a1,1,0,0,0-1.216-.154,7,7,0,0,1-1.8.745,1,1,0,0,0-.75.968V30H18V27.738a1,1,0,0,0-.75-.968,7,7,0,0,1-1.8-.745,1,1,0,0,0-1.216.154l-1.6,1.6-1.414-1.414,1.6-1.6a1,1,0,0,0,.154-1.216,7,7,0,0,1-.745-1.8,1,1,0,0,0-.968-.75H9V19h2.262a1,1,0,0,0,.968-.75,7,7,0,0,1,.745-1.8,1,1,0,0,0-.154-1.216l-1.6-1.6,1.414-1.414,1.6,1.6a1,1,0,0,0,1.216.154,7,7,0,0,1,1.8-.745,1,1,0,0,0,.75-.968V10h2v2.262a1,1,0,0,0,.75.968,7,7,0,0,1,1.8.745,1,1,0,0,0,1.216-.154l1.6-1.6,1.414,1.414-1.6,1.6a1,1,0,0,0-.154,1.216,7,7,0,0,1,.745,1.8,1,1,0,0,0,.968.75H29v2H26.738a1,1,0,0,0-.968.75,7,7,0,0,1-.745,1.8,1,1,0,0,0,.154,1.216l1.6,1.6Z" style="fill:#004fac"/><path d="M19,17a3,3,0,1,0,3,3A3,3,0,0,0,19,17Zm0,4a1,1,0,1,1,1-1A1,1,0,0,1,19,21Z" style="fill:#004fac"/></g></svg>
