<svg id="Capa_1" enable-background="new 0 0 64 64" height="512" viewBox="0 0 64 64" width="512" xmlns="http://www.w3.org/2000/svg"><path d="m62 45v4c-.003 1.103-.897 1.997-2 2h-56c-1.103-.003-1.997-.897-2-2v-4h25l1 3h8l1-3z" fill="#57a4ff"/><path d="m16 23h12v4h-12z" fill="#57a4ff"/><path d="m38 30v-4c0-1.657 1.343-3 3-3h2c1.657 0 3 1.343 3 3v4c0 1.66-1.34 2-3 2h-2c-1.66 0-3-.34-3-2z" fill="#57a4ff"/><path d="m47 35v3h3v-3zm-13 3h3v-3h-3zm21-23h-46c-1.103.003-1.997.897-2 2v28h50v-28c-.003-1.103-.897-1.997-2-2zm-1 27h-7v-4h3v-3h-16v3h3v4h-27v-24h44z" fill="#57a4ff"/><g fill="#004fac"><path d="m62 44h-4v-27c0-1.657-1.343-3-3-3h-46c-1.657 0-3 1.343-3 3v27h-4c-.552 0-1 .448-1 1v4c0 1.657 1.343 3 3 3h56c1.657 0 3-1.343 3-3v-4c0-.552-.448-1-1-1zm-54-27c0-.552.448-1 1-1h46c.552 0 1 .448 1 1v27h-48zm27.613 29-.334 1h-6.558l-.334-1zm25.387 3c0 .552-.448 1-1 1h-56c-.552 0-1-.448-1-1v-3h23.279l.772 2.316c.136.409.518.684.949.684h8c.431 0 .813-.275.949-.684l.772-2.316h23.279z"/><path d="m55 47h-6c-.552 0-1 .448-1 1s.448 1 1 1h6c.552 0 1-.448 1-1s-.448-1-1-1z"/><path d="m58 49h1c.552 0 1-.448 1-1s-.448-1-1-1h-1c-.552 0-1 .448-1 1s.448 1 1 1z"/><path d="m47 43h7c.552 0 1-.448 1-1v-24c0-.552-.448-1-1-1h-44c-.552 0-1 .448-1 1v24c0 .552.448 1 1 1zm-11-6h-1v-1h1zm2 4v-5h8v5zm11-5v1h-1v-1zm-38-17h42v22h-5v-2h2c.552 0 1-.448 1-1v-3c0-.552-.448-1-1-1h-7v-1c2.654 0 4-1.009 4-3v-4c0-2.209-1.791-4-4-4v-1c0-.552-.448-1-1-1s-1 .448-1 1v1c-2.209 0-4 1.791-4 4v4c0 1.991 1.346 3 4 3v1h-7c-.552 0-1 .448-1 1v3c0 .552.448 1 1 1h2v2h-25zm28 9h1c.552 0 1-.448 1-1s-.448-1-1-1h-1c0-1.105.895-2 2-2h2c1.105 0 2 .895 2 2h-1c-.552 0-1 .448-1 1s.448 1 1 1h1v2c0 .469 0 1-2 1h-2c-2 0-2-.531-2-1z"/><path d="m28 29h-12c-.552 0-1 .448-1 1s.448 1 1 1h12c.552 0 1-.448 1-1s-.448-1-1-1z"/><path d="m28 32h-12c-.552 0-1 .448-1 1s.448 1 1 1h12c.552 0 1-.448 1-1s-.448-1-1-1z"/><path d="m18 35h-2c-.552 0-1 .448-1 1s.448 1 1 1h2c.552 0 1-.448 1-1s-.448-1-1-1z"/><path d="m22 35h-1c-.552 0-1 .448-1 1s.448 1 1 1h1c.552 0 1-.448 1-1s-.448-1-1-1z"/><path d="m28 22h-12c-.552 0-1 .448-1 1v4c0 .552.448 1 1 1h12c.552 0 1-.448 1-1v-4c0-.552-.448-1-1-1zm-1 4h-10v-2h10z"/></g></svg>