<svg height="512" viewBox="0 0 64 64" width="512" xmlns="http://www.w3.org/2000/svg"><g id="Ai-8" data-name="Ai"><g fill="#57a4ff"><path d="m13 31h2a3 3 0 0 1 3 3v4a2 2 0 0 1 -2 2h-3a3 3 0 0 1 -3-3v-3a3 3 0 0 1 3-3z"/><path d="m10 43h8v8h-8z"/><path d="m5 43h4v3h-4z"/><path d="m8 56h4v3h-4z"/><path d="m16 56h4v3h-4z"/><path d="m19 43h4v3h-4z"/><path d="m49 31h2a3 3 0 0 1 3 3v4a2 2 0 0 1 -2 2h-3a3 3 0 0 1 -3-3v-3a3 3 0 0 1 3-3z"/><path d="m46 43h8v8h-8z"/><path d="m41 43h4v3h-4z"/><path d="m44 56h4v3h-4z"/><path d="m52 56h4v3h-4z"/><path d="m55 43h4v3h-4z"/><path d="m27 24h10v3h-10z"/><path d="m29 27h6v3h-6z"/></g><path d="m60 43a1 1 0 0 0 -1-1h-4a.977.977 0 0 0 -.5.153.977.977 0 0 0 -.5-.153h-3v-1c2.654 0 4-1.01 4-3v-4a4 4 0 0 0 -4-4v-2a1 1 0 0 0 -2 0v2a4 4 0 0 0 -4 4v4c0 1.99 1.346 3 4 3v1h-3a.977.977 0 0 0 -.5.153.977.977 0 0 0 -.5-.153h-4a1 1 0 0 0 -1 1v3a1 1 0 0 0 1 1h1v5a1 1 0 0 0 2 0v-5h1v4a1 1 0 0 0 1 1v3h-2a1 1 0 0 0 -1 1v2h-22v-2a1 1 0 0 0 -1-1h-2v-3a1 1 0 0 0 1-1v-4h1v5a1 1 0 0 0 2 0v-5h1a1 1 0 0 0 1-1v-3a1 1 0 0 0 -1-1h-4a.977.977 0 0 0 -.5.153.977.977 0 0 0 -.5-.153h-3v-1c2.654 0 4-1.01 4-3v-4a4 4 0 0 0 -4-4v-2a1 1 0 0 0 -2 0v2a4 4 0 0 0 -4 4v4c0 1.99 1.346 3 4 3v1h-3a.977.977 0 0 0 -.5.153.977.977 0 0 0 -.5-.153h-4a1 1 0 0 0 -1 1v3a1 1 0 0 0 1 1h1v5a1 1 0 0 0 2 0v-5h1v4a1 1 0 0 0 1 1v3h-2a1 1 0 0 0 -1 1v2h-5a1 1 0 0 0 0 2h56a1 1 0 0 0 0-2h-1v-2a1 1 0 0 0 -1-1h-2v-3a1 1 0 0 0 1-1v-4h1v5a1 1 0 0 0 2 0v-5h1a1 1 0 0 0 1-1zm-13-5v-2h1a1 1 0 0 0 0-2h-1a2 2 0 0 1 2-2h2a2 2 0 0 1 2 2h-1a1 1 0 0 0 0 2h1v2c0 .469 0 1-2 1h-2c-2 0-2-.531-2-1zm-3 7h-2v-1h2zm-24-1h2v1h-2zm-9-6v-2h1a1 1 0 0 0 0-2h-1a2 2 0 0 1 2-2h2a2 2 0 0 1 2 2h-1a1 1 0 0 0 0 2h1v2c0 .469 0 1-2 1h-2c-2 0-2-.531-2-1zm-3 7h-2v-1h2zm39-1h6v6h-6zm-36 0h6v6h-6zm1 8h4v3a1 1 0 0 0 -1 1v2h-2v-2a1 1 0 0 0 -1-1zm-3 6v-1h2v1zm8 0v-1h2v1zm28 0v-1h2v1zm10-1v1h-2v-1zm-3-2a1 1 0 0 0 -1 1v2h-2v-2a1 1 0 0 0 -1-1v-3h4zm6-10h-2v-1h2z" fill="#004fac"/><path d="m62 58h-1a1 1 0 0 0 0 2h1a1 1 0 0 0 0-2z" fill="#004fac"/><path d="m24 34h16a3 3 0 0 0 3-3v-24a3 3 0 0 0 -3-3h-16a3 3 0 0 0 -3 3v24a3 3 0 0 0 3 3zm-1-27a1 1 0 0 1 1-1h16a1 1 0 0 1 1 1v24a1 1 0 0 1 -1 1h-16a1 1 0 0 1 -1-1z" fill="#004fac"/><path d="m14 22a1 1 0 0 0 1-1v-2h4a1 1 0 0 0 0-2h-5a1 1 0 0 0 -1 1v3a1 1 0 0 0 1 1z" fill="#004fac"/><path d="m45 19h4v6a1 1 0 0 0 2 0v-7a1 1 0 0 0 -1-1h-5a1 1 0 0 0 0 2z" fill="#004fac"/><path d="m14 26a1 1 0 0 0 1-1v-1a1 1 0 0 0 -2 0v1a1 1 0 0 0 1 1z" fill="#004fac"/><path d="m26.815 21.086a3.232 3.232 0 0 1 1.129 1.914h-.944a1 1 0 0 0 -1 1v3a1 1 0 0 0 1 1h1v2a1 1 0 0 0 1 1h6a1 1 0 0 0 1-1v-2h1a1 1 0 0 0 1-1v-3a1 1 0 0 0 -1-1h-.945a3.156 3.156 0 0 1 1.092-1.883 8 8 0 0 0 -5.279-14.117 8.092 8.092 0 0 0 -7.863 7.709 7.953 7.953 0 0 0 2.81 6.377zm7.185 7.914h-4v-1h4zm2-3h-8v-1h8zm-4.1-17a5.889 5.889 0 0 1 4.309 1.721 5.995 5.995 0 0 1 -.348 8.864 5.136 5.136 0 0 0 -1.838 3.415h-4.047a5.248 5.248 0 0 0 -1.865-3.438 5.963 5.963 0 0 1 -2.111-4.782 6.066 6.066 0 0 1 5.9-5.78z" fill="#004fac"/></g></svg>