<svg height="512" viewBox="0 0 64 64" width="512" xmlns="http://www.w3.org/2000/svg"><path d="m43 6h18v38h-18z" fill="#57a4ff"/><path d="m11 22v10h18v-10zm5 7a2 2 0 1 1 2-2 2.006 2.006 0 0 1 -2 2zm8 0a2 2 0 1 1 2-2 2.006 2.006 0 0 1 -2 2z" fill="#57a4ff"/><path d="m12 42h16v20h-16z" fill="#57a4ff"/><path d="m12 42v10h-10v-8a2.006 2.006 0 0 1 2-2z" fill="#57a4ff"/><path d="m38 44v8h-10v-10h8a2.006 2.006 0 0 1 2 2z" fill="#57a4ff"/><path d="m16 18h8a2 2 0 0 1 2 2v2a0 0 0 0 1 0 0h-12a0 0 0 0 1 0 0v-2a2 2 0 0 1 2-2z" fill="#57a4ff"/><g fill="#004fac"><path d="m61 5h-3v-1a3 3 0 0 0 -3-3h-6a3 3 0 0 0 -3 3v1h-3a1 1 0 0 0 -1 1v38a1 1 0 0 0 1 1h8v4a1 1 0 0 0 .293.707l1.019 1.019-2.759 1.379a1 1 0 0 0 0 1.79l2.759 1.379-1.019 1.019a1 1 0 0 0 -.293.707v2h-14v-6h1a1 1 0 0 0 1-1v-8a3 3 0 0 0 -3-3h-13v-2h3a1 1 0 0 0 1-1v-5h2a1 1 0 0 0 1-1v-10a1 1 0 0 0 -1-1h-2v-1a3 3 0 0 0 -3-3h-3v-2a1 1 0 0 0 -2 0v2h-3a3 3 0 0 0 -3 3v1h-2a1 1 0 0 0 -1 1v10a1 1 0 0 0 1 1h2v5a1 1 0 0 0 1 1h3v2h-13a3 3 0 0 0 -3 3v8a1 1 0 0 0 1 1h1v9a1 1 0 0 0 1 1h4a1 1 0 0 0 1-1v-9h2v9a1 1 0 0 0 1 1h16a1 1 0 0 0 1-1v-9h2v9a1 1 0 0 0 1 1h4a1 1 0 0 0 1-1v-1h15a1 1 0 0 0 1-1v-2.586l1.707-1.707a1 1 0 0 0 -.26-1.6l-2.211-1.107 2.211-1.1a1 1 0 0 0 .26-1.6l-1.707-1.714v-3.586h8a1 1 0 0 0 1-1v-38a1 1 0 0 0 -1-1zm-54 56h-2v-8h2zm4-10h-8v-7a1 1 0 0 1 1-1h7zm4-31a1 1 0 0 1 1-1h8a1 1 0 0 1 1 1v1h-10zm-3 11v-8h16v8zm3 6v-4h10v4zm6 2v2h-2v-2zm6 22h-14v-18h14zm8 0h-2v-8h2zm-3-10h-3v-8h7a1 1 0 0 1 1 1v7zm16-47a1 1 0 0 1 1-1h6a1 1 0 0 1 1 1v1h-8zm12 39h-16v-36h16z"/><path d="m55 11h-2v-2a1 1 0 0 0 -2 0v2h-2a1 1 0 0 0 0 2h2v2a1 1 0 0 0 2 0v-2h2a1 1 0 0 0 0-2z"/><path d="m55 38h-6a1 1 0 0 0 0 2h6a1 1 0 0 0 0-2z"/><path d="m24 24a3 3 0 1 0 3 3 3 3 0 0 0 -3-3zm0 4a1 1 0 1 1 1-1 1 1 0 0 1 -1 1z"/><path d="m16 24a3 3 0 1 0 3 3 3 3 0 0 0 -3-3zm0 4a1 1 0 1 1 1-1 1 1 0 0 1 -1 1z"/><path d="m22 34h-4a1 1 0 0 0 0 2h4a1 1 0 0 0 0-2z"/><path d="m15 60h4a1 1 0 0 0 0-2h-4a1 1 0 0 0 0 2z"/><path d="m22 60h1a1 1 0 0 0 0-2h-1a1 1 0 0 0 0 2z"/></g></svg>