<svg height="512" viewBox="0 0 64 64" width="512" xmlns="http://www.w3.org/2000/svg"><g id="Cloud_computing" data-name="Cloud computing"><path d="m2 30h9v4h-9z" fill="#57a4ff"/><path d="m53 30h9v4h-9z" fill="#57a4ff"/><path d="m27.5 4.5h9v4h-9z" fill="#57a4ff" transform="matrix(0 1 -1 0 38.5 -25.5)"/><path d="m27.5 55.5h9v4h-9z" fill="#57a4ff" transform="matrix(0 1 -1 0 89.5 25.5)"/><path d="m9.469 48.031h9v4h-9z" fill="#57a4ff" transform="matrix(.707 -.707 .707 .707 -31.286 24.531)"/><path d="m45.531 11.969h9v4h-9z" fill="#57a4ff" transform="matrix(.707 -.707 .707 .707 4.776 39.469)"/><path d="m9.469 11.969h9v4h-9z" fill="#57a4ff" transform="matrix(.707 .707 -.707 .707 13.969 -5.786)"/><path d="m45.531 48.031h9v4h-9z" fill="#57a4ff" transform="matrix(.707 .707 -.707 .707 50.031 -20.724)"/><g fill="#004fac"><path d="m47 31a7.008 7.008 0 0 0 -6.941-7 8.992 8.992 0 0 0 -16.854 2.125 5.868 5.868 0 0 0 -1.205-.125 6 6 0 0 0 0 12h19a.9.9 0 0 0 .524-.174 6.971 6.971 0 0 0 5.476-6.826zm-6.166 4.924a.849.849 0 0 0 -.234.076h-18.6a4 4 0 0 1 0-8 3.951 3.951 0 0 1 1.622.352 1 1 0 0 0 1.4-.845 6.992 6.992 0 0 1 13.473-2.107 1 1 0 0 0 1.026.623c.158-.015.318-.024.479-.024a5 5 0 0 1 .834 9.924z"/><path d="m40 33h-8a1 1 0 0 0 0 2h8a1 1 0 0 0 0-2z"/><path d="m29 33h-1a1 1 0 0 0 0 2h1a1 1 0 0 0 0-2z"/><path d="m12 34v-4a1 1 0 0 0 -1-1h-9a1 1 0 0 0 -1 1v4a1 1 0 0 0 1 1h9a1 1 0 0 0 1-1zm-2-1h-7v-2h7z"/><path d="m62 29h-9a1 1 0 0 0 -1 1v4a1 1 0 0 0 1 1h9a1 1 0 0 0 1-1v-4a1 1 0 0 0 -1-1zm-1 4h-7v-2h7z"/><path d="m30 12h4a1 1 0 0 0 1-1v-9a1 1 0 0 0 -1-1h-4a1 1 0 0 0 -1 1v9a1 1 0 0 0 1 1zm1-9h2v7h-2z"/><path d="m34 52h-4a1 1 0 0 0 -1 1v9a1 1 0 0 0 1 1h4a1 1 0 0 0 1-1v-9a1 1 0 0 0 -1-1zm-1 9h-2v-7h2z"/><path d="m16.443 44.728a1.029 1.029 0 0 0 -1.414 0l-6.363 6.364a1 1 0 0 0 0 1.414l2.828 2.828a1 1 0 0 0 1.414 0l6.364-6.363a1 1 0 0 0 0-1.414zm-4.243 8.485-1.413-1.413 4.949-4.95 1.415 1.415z"/><path d="m47.557 19.272a1 1 0 0 0 1.414 0l6.363-6.364a1 1 0 0 0 0-1.414l-2.828-2.828a1 1 0 0 0 -1.414 0l-6.364 6.363a1 1 0 0 0 0 1.414zm4.243-8.485 1.413 1.413-4.949 4.95-1.415-1.415z"/><path d="m15.029 19.272a1 1 0 0 0 1.414 0l2.829-2.829a1 1 0 0 0 0-1.414l-6.364-6.363a1 1 0 0 0 -1.414 0l-2.828 2.828a1 1 0 0 0 0 1.414zm-2.829-8.485 4.95 4.949-1.415 1.415-4.948-4.951z"/><path d="m48.971 44.728a1 1 0 0 0 -1.414 0l-2.829 2.829a1 1 0 0 0 0 1.414l6.364 6.363a1 1 0 0 0 1.414 0l2.828-2.828a1 1 0 0 0 0-1.414zm2.829 8.485-4.95-4.949 1.415-1.415 4.949 4.95z"/></g></g></svg>