<svg height="512" viewBox="0 0 64 64" width="512" xmlns="http://www.w3.org/2000/svg"><g id="Cloud_network" data-name="Cloud network"><circle cx="5" cy="29" fill="#57a4ff" r="3"/><circle cx="59" cy="34" fill="#57a4ff" r="3"/><circle cx="9" cy="41" fill="#57a4ff" r="2"/><circle cx="38" cy="48" fill="#57a4ff" r="2"/><g fill="#004fac"><path d="m59 30a4 4 0 0 0 -3.866 3.027 1.026 1.026 0 0 0 -.134-.027h-1.586l-2.707-2.707a1 1 0 0 0 -.707-.293h-3a1.009 1.009 0 0 0 -.28.056 6.894 6.894 0 0 0 -.405-1.056h4.685a1 1 0 0 0 0-2h-6a.935.935 0 0 0 -.092.018 6.975 6.975 0 0 0 -4.849-2.018 8.992 8.992 0 0 0 -16.853 2.125 5.885 5.885 0 0 0 -1.206-.125 6 6 0 0 0 -5.65 4h-1.936l-2.707-2.707a1 1 0 0 0 -.707-.293h-2a1.026 1.026 0 0 0 -.134.027 4 4 0 1 0 0 1.946 1.026 1.026 0 0 0 .134.027h1.586l2.707 2.707a1 1 0 0 0 .707.293h2a6 6 0 0 0 .09 1h-8.09a1 1 0 0 0 0 2h8.812a6.044 6.044 0 0 0 1.254 1.52l-2.48 2.48h-3.586a.9.9 0 0 0 -.173.035 3 3 0 1 0 0 1.93.9.9 0 0 0 .173.035h4a1 1 0 0 0 .707-.293l3.12-3.12a5.969 5.969 0 0 0 2.173.413h19a.9.9 0 0 0 .524-.174 6.972 6.972 0 0 0 5.476-6.826h2.586l2.707 2.707a1 1 0 0 0 .707.293h2a1.026 1.026 0 0 0 .134-.027 3.994 3.994 0 1 0 3.866-4.973zm-54 1a2 2 0 1 1 2-2 2 2 0 0 1 -2 2zm4 11a1 1 0 1 1 1-1 1 1 0 0 1 -1 1zm31.834-5.076a.849.849 0 0 0 -.234.076h-18.6a4 4 0 0 1 0-8 3.954 3.954 0 0 1 1.622.352 1 1 0 0 0 1.4-.845 6.992 6.992 0 0 1 13.478-2.107 1 1 0 0 0 1.025.623c.158-.015.317-.024.479-.024a5 5 0 0 1 .834 9.924zm18.166-.924a2 2 0 1 1 2-2 2 2 0 0 1 -2 2z"/><path d="m5 34h-1a1 1 0 0 0 0 2h1a1 1 0 0 0 0-2z"/><path d="m54 27a1 1 0 0 0 0 2h1a1 1 0 0 0 0-2z"/><path d="m40 34h-8a1 1 0 0 0 0 2h8a1 1 0 0 0 0-2z"/><path d="m29 34h-1a1 1 0 0 0 0 2h1a1 1 0 0 0 0-2z"/><path d="m41 24a1 1 0 0 0 .733-.319l6.203-6.681h4.064a.9.9 0 0 0 .173-.035 3 3 0 1 0 0-1.93.9.9 0 0 0 -.173-.035h-4.5a1 1 0 0 0 -.733.319l-6.5 7a1 1 0 0 0 .733 1.681zm14-9a1 1 0 1 1 -1 1 1 1 0 0 1 1-1z"/><path d="m38 45a3 3 0 0 0 -2.827 2.035.9.9 0 0 0 -.173-.035h-4.064l-6.2-6.681a1 1 0 0 0 -1.466 1.362l6.5 7a1 1 0 0 0 .73.319h4.5a.9.9 0 0 0 .173-.035 2.994 2.994 0 1 0 2.827-3.965zm0 4a1 1 0 1 1 1-1 1 1 0 0 1 -1 1z"/></g></g></svg>