<svg height="512" viewBox="0 0 64 64" width="512" xmlns="http://www.w3.org/2000/svg"><g id="Cloud_network-2" data-name="Cloud network"><circle cx="40" cy="58" fill="#57a4ff" r="4"/><circle cx="26" cy="38" fill="#57a4ff" r="2"/><circle cx="6" cy="30" fill="#57a4ff" r="2"/><circle cx="16" cy="26" fill="#57a4ff" r="2"/><circle cx="59" cy="40" fill="#57a4ff" r="2"/><g fill="#004fac"><path d="m40 15h-8a1 1 0 0 0 0 2h8a1 1 0 0 0 0-2z"/><path d="m29 15h-1a1 1 0 0 0 0 2h1a1 1 0 0 0 0-2z"/><path d="m60 37.184v-4.184a1 1 0 0 0 -.293-.707l-5.707-5.707v-14.586a1 1 0 0 0 -1-1h-6a1.009 1.009 0 0 0 -.28.056 7.01 7.01 0 0 0 -6.661-5.056 8.992 8.992 0 0 0 -16.853 2.125 5.885 5.885 0 0 0 -1.206-.125 5.984 5.984 0 0 0 -5.65 8h-4.35a1 1 0 0 0 -.707.293l-6 6a1 1 0 0 0 -.293.707v4.184a3 3 0 1 0 2 0v-3.77l5.414-5.414h2.586v5a.9.9 0 0 0 .035.173 3 3 0 1 0 1.93 0 .9.9 0 0 0 .035-.173v-5h.54a5.983 5.983 0 0 0 4.46 2h9v4.586l-5.707 5.707a1 1 0 0 0 -.293.707v4.184a3 3 0 1 0 2 0v-3.77l4-4v13.586a1 1 0 0 0 .293.707l7.707 7.707v3.586a.826.826 0 0 0 .02.1 5 5 0 1 0 1.96 0 .826.826 0 0 0 .02-.1v-4a1 1 0 0 0 -.293-.707l-7.707-7.707v-20.586h8a.9.9 0 0 0 .524-.174 6.972 6.972 0 0 0 5.476-6.826h5v14a1 1 0 0 0 .293.707l5.707 5.707v3.77a3 3 0 1 0 2 0zm-54-6.184a1 1 0 1 1 1-1 1 1 0 0 1 -1 1zm10-4a1 1 0 1 1 1-1 1 1 0 0 1 -1 1zm10 12a1 1 0 1 1 1-1 1 1 0 0 1 -1 1zm17 19a3 3 0 1 1 -3-3 3 3 0 0 1 3 3zm-2.166-40.076a.849.849 0 0 0 -.234.076h-18.6a4 4 0 0 1 0-8 3.954 3.954 0 0 1 1.622.352 1 1 0 0 0 1.4-.845 6.992 6.992 0 0 1 13.478-2.107 1 1 0 0 0 1.025.623c.154-.014.313-.023.475-.023a5 5 0 0 1 .834 9.924zm18.166 23.076a1 1 0 1 1 1-1 1 1 0 0 1 -1 1z"/><path d="m45 30a3 3 0 0 0 -2.035-2.827.9.9 0 0 0 .035-.173v-5a1 1 0 0 0 -2 0v5a.9.9 0 0 0 .035.173 2.994 2.994 0 1 0 3.965 2.827zm-3 1a1 1 0 1 1 1-1 1 1 0 0 1 -1 1z"/><path d="m26 42a1 1 0 0 0 -1 1v4a1 1 0 0 0 2 0v-4a1 1 0 0 0 -1-1z"/><path d="m26 49a1 1 0 0 0 -1 1v2a1 1 0 0 0 2 0v-2a1 1 0 0 0 -1-1z"/><path d="m59 44a1 1 0 0 0 -1 1v1a1 1 0 0 0 2 0v-1a1 1 0 0 0 -1-1z"/><path d="m41 35v3a1 1 0 0 0 2 0v-3a1 1 0 0 0 -2 0z"/></g></g></svg>