<svg id="Cloud" height="512" viewBox="0 0 64 64" width="512" xmlns="http://www.w3.org/2000/svg"><g fill="#57a4ff"><circle cx="18" cy="57" r="3"/><circle cx="28" cy="49" r="3"/><circle cx="47" cy="47" r="3"/></g><path d="m48 39h1a14 14 0 1 0 -1.959-27.857 17.856 17.856 0 0 0 -15.041-8.143 18.09 18.09 0 0 0 -17.591 14.271 10.9 10.9 0 0 0 -2.409-.271 11 11 0 0 0 -1.418 21.908.991.991 0 0 0 .418.092h6v14a1.026 1.026 0 0 0 .027.134 4 4 0 1 0 1.946 0 1.026 1.026 0 0 0 .027-.134v-14h8v6a1.026 1.026 0 0 0 .027.134 4 4 0 1 0 1.946 0 1.026 1.026 0 0 0 .027-.134v-6h8v12a1.026 1.026 0 0 0 .027.134 4 4 0 1 0 1.946 0 1.026 1.026 0 0 0 .027-.134v-12h7v4a1.026 1.026 0 0 0 .027.134 4 4 0 1 0 1.946 0 1.026 1.026 0 0 0 .027-.134zm-28 18a2 2 0 1 1 -2-2 2 2 0 0 1 2 2zm10-8a2 2 0 1 1 -2-2 2 2 0 0 1 2 2zm10 6a2 2 0 1 1 -2-2 2 2 0 0 1 2 2zm-28.687-18a1 1 0 0 0 -.214-.045 9 9 0 1 1 3.78-17.476 1 1 0 0 0 1.31-.8 16.067 16.067 0 0 1 15.811-13.679 15.884 15.884 0 0 1 13.692 7.755 1 1 0 0 0 1.044.466 12 12 0 1 1 2.264 23.779zm37.687 10a2 2 0 1 1 -2-2 2 2 0 0 1 2 2z" fill="#004fac"/><path d="m23 33h-13a1 1 0 0 0 0 2h13a1 1 0 0 0 0-2z" fill="#004fac"/><path d="m27 33h-1a1 1 0 0 0 0 2h1a1 1 0 0 0 0-2z" fill="#004fac"/></svg>