<svg height="512" viewBox="0 0 64 64" width="512" xmlns="http://www.w3.org/2000/svg"><path d="m24 2h37v5h-37z" fill="#57a4ff"/><path d="m11 22v10h18v-10zm5 7a2 2 0 1 1 2-2 2.006 2.006 0 0 1 -2 2zm8 0a2 2 0 1 1 2-2 2.006 2.006 0 0 1 -2 2z" fill="#57a4ff"/><path d="m12 42h16v20h-16z" fill="#57a4ff"/><path d="m4 42h8a0 0 0 0 1 0 0v10a0 0 0 0 1 0 0h-10a0 0 0 0 1 0 0v-8a2 2 0 0 1 2-2z" fill="#57a4ff"/><path d="m28 42h8a2 2 0 0 1 2 2v8a0 0 0 0 1 0 0h-10a0 0 0 0 1 0 0v-10a0 0 0 0 1 0 0z" fill="#57a4ff"/><path d="m16 18h8a2 2 0 0 1 2 2v2a0 0 0 0 1 0 0h-12a0 0 0 0 1 0 0v-2a2 2 0 0 1 2-2z" fill="#57a4ff"/><g fill="#004fac"><path d="m61 1h-37a1 1 0 0 0 -1 1v15h-2v-2a1 1 0 0 0 -2 0v2h-3a3 3 0 0 0 -3 3v1h-2a1 1 0 0 0 -1 1v10a1 1 0 0 0 1 1h2v5a1 1 0 0 0 1 1h3v2h-13a3 3 0 0 0 -3 3v8a1 1 0 0 0 1 1h1v9a1 1 0 0 0 1 1h4a1 1 0 0 0 1-1v-9h2v9a1 1 0 0 0 1 1h16a1 1 0 0 0 1-1v-9h2v9a1 1 0 0 0 1 1h4a1 1 0 0 0 1-1v-9h1a1 1 0 0 0 1-1v-8a3 3 0 0 0 -3-3h-13v-2h3a1 1 0 0 0 1-1v-5h2a1 1 0 0 0 1-1v-6h31a1 1 0 0 0 1-1v-23a1 1 0 0 0 -1-1zm-54 60h-2v-8h2zm4-10h-8v-7a1 1 0 0 1 1-1h7zm24 10h-2v-8h2zm-6-18h7a1 1 0 0 1 1 1v7h-8zm-4-40h35v3h-35zm-10 17a1 1 0 0 1 1-1h8a1 1 0 0 1 1 1v1h-10zm12 23v18h-14v-18zm-8-2v-2h2v2zm6-4h-10v-4h10zm3-6h-16v-8h16zm32-7h-30v-2a1 1 0 0 0 -1-1h-2v-1a3 3 0 0 0 -2-2.816v-9.184h35z"/><path d="m34.649 19.937a1.029 1.029 0 0 0 .351.063 1 1 0 0 0 .937-.649l3-8a1 1 0 1 0 -1.874-.7l-3 8a1 1 0 0 0 .586 1.286z"/><path d="m40.4 19.8a1 1 0 0 0 1.4-.2l3-4a1 1 0 0 0 0-1.2l-3-4a1 1 0 0 0 -1.6 1.2l2.55 3.4-2.55 3.4a1 1 0 0 0 .2 1.4z"/><path d="m31.2 19.6a1 1 0 1 0 1.6-1.2l-2.55-3.4 2.55-3.4a1 1 0 1 0 -1.6-1.2l-3 4a1 1 0 0 0 0 1.2z"/><path d="m48 13h8a1 1 0 0 0 0-2h-8a1 1 0 0 0 0 2z"/><path d="m48 16h8a1 1 0 0 0 0-2h-8a1 1 0 0 0 0 2z"/><path d="m48 19h2a1 1 0 0 0 0-2h-2a1 1 0 0 0 0 2z"/><path d="m54 17h-1a1 1 0 0 0 0 2h1a1 1 0 0 0 0-2z"/><path d="m24 30a3 3 0 1 0 -3-3 3 3 0 0 0 3 3zm0-4a1 1 0 1 1 -1 1 1 1 0 0 1 1-1z"/><path d="m16 30a3 3 0 1 0 -3-3 3 3 0 0 0 3 3zm0-4a1 1 0 1 1 -1 1 1 1 0 0 1 1-1z"/><path d="m18 36h4a1 1 0 0 0 0-2h-4a1 1 0 0 0 0 2z"/><path d="m15 60h4a1 1 0 0 0 0-2h-4a1 1 0 0 0 0 2z"/><path d="m22 60h1a1 1 0 0 0 0-2h-1a1 1 0 0 0 0 2z"/></g></svg>