<svg height="512" viewBox="0 0 64 64" width="512" xmlns="http://www.w3.org/2000/svg"><g id="Coding-2" data-name="Coding"><g fill="#57a4ff"><path d="m13 33h2a3 3 0 0 1 3 3v4a2 2 0 0 1 -2 2h-3a3 3 0 0 1 -3-3v-3a3 3 0 0 1 3-3z"/><path d="m10 45h8v8h-8z"/><path d="m5 45h4v3h-4z"/><path d="m8 58h4v3h-4z"/><path d="m16 58h4v3h-4z"/><path d="m19 45h4v3h-4z"/><path d="m49 33h2a3 3 0 0 1 3 3v4a2 2 0 0 1 -2 2h-3a3 3 0 0 1 -3-3v-3a3 3 0 0 1 3-3z"/><path d="m46 45h8v8h-8z"/><path d="m41 45h4v3h-4z"/><path d="m44 58h4v3h-4z"/><path d="m52 58h4v3h-4z"/><path d="m55 45h4v3h-4z"/></g><path d="m60 45a1 1 0 0 0 -1-1h-4a.977.977 0 0 0 -.5.153.977.977 0 0 0 -.5-.153h-3v-1c2.654 0 4-1.01 4-3v-4a4 4 0 0 0 -4-4v-2a1 1 0 0 0 -2 0v2a4 4 0 0 0 -4 4v4c0 1.99 1.346 3 4 3v1h-3a.977.977 0 0 0 -.5.153.977.977 0 0 0 -.5-.153h-4a1 1 0 0 0 -1 1v3a1 1 0 0 0 1 1h1v5a1 1 0 0 0 2 0v-5h1v4a1 1 0 0 0 1 1v3h-2a1 1 0 0 0 -1 1v2h-22v-2a1 1 0 0 0 -1-1h-2v-3a1 1 0 0 0 1-1v-4h1v5a1 1 0 0 0 2 0v-5h1a1 1 0 0 0 1-1v-3a1 1 0 0 0 -1-1h-4a.977.977 0 0 0 -.5.153.977.977 0 0 0 -.5-.153h-3v-1c2.654 0 4-1.01 4-3v-4a4 4 0 0 0 -4-4v-2a1 1 0 0 0 -2 0v2a4 4 0 0 0 -4 4v4c0 1.99 1.346 3 4 3v1h-3a.977.977 0 0 0 -.5.153.977.977 0 0 0 -.5-.153h-4a1 1 0 0 0 -1 1v3a1 1 0 0 0 1 1h1v5a1 1 0 0 0 2 0v-5h1v4a1 1 0 0 0 1 1v3h-2a1 1 0 0 0 -1 1v2h-5a1 1 0 0 0 0 2h56a1 1 0 0 0 0-2h-1v-2a1 1 0 0 0 -1-1h-2v-3a1 1 0 0 0 1-1v-4h1v5a1 1 0 0 0 2 0v-5h1a1 1 0 0 0 1-1zm-13-5v-2h1a1 1 0 0 0 0-2h-1a2 2 0 0 1 2-2h2a2 2 0 0 1 2 2h-1a1 1 0 0 0 0 2h1v2c0 .469 0 1-2 1h-2c-2 0-2-.531-2-1zm-3 7h-2v-1h2zm-24-1h2v1h-2zm-9-6v-2h1a1 1 0 0 0 0-2h-1a2 2 0 0 1 2-2h2a2 2 0 0 1 2 2h-1a1 1 0 0 0 0 2h1v2c0 .469 0 1-2 1h-2c-2 0-2-.531-2-1zm-3 7h-2v-1h2zm39-1h6v6h-6zm-36 0h6v6h-6zm1 8h4v3a1 1 0 0 0 -1 1v2h-2v-2a1 1 0 0 0 -1-1zm-3 6v-1h2v1zm8 0v-1h2v1zm28 0v-1h2v1zm10-1v1h-2v-1zm-3-2a1 1 0 0 0 -1 1v2h-2v-2a1 1 0 0 0 -1-1v-3h4zm6-10h-2v-1h2z" fill="#004fac"/><path d="m62 60h-1a1 1 0 0 0 0 2h1a1 1 0 0 0 0-2z" fill="#004fac"/><path d="m14 24a1 1 0 0 0 1-1v-2h2v9a3 3 0 0 0 3 3h24a3 3 0 0 0 3-3v-9h2v6a1 1 0 0 0 2 0v-7a1 1 0 0 0 -1-1h-3v-13a3 3 0 0 0 -3-3h-24a3 3 0 0 0 -3 3v13h-3a1 1 0 0 0 -1 1v3a1 1 0 0 0 1 1zm5-18a1 1 0 0 1 1-1h24a1 1 0 0 1 1 1v24a1 1 0 0 1 -1 1h-24a1 1 0 0 1 -1-1z" fill="#004fac"/><path d="m14 28a1 1 0 0 0 1-1v-1a1 1 0 0 0 -2 0v1a1 1 0 0 0 1 1z" fill="#004fac"/><path d="m29.648 17.937a1.038 1.038 0 0 0 .352.063 1 1 0 0 0 .937-.648l3-8a1 1 0 0 0 -1.874-.7l-3 8a1 1 0 0 0 .585 1.285z" fill="#004fac"/><path d="m36.4 17.8a1 1 0 0 0 1.4-.2l3-4a1 1 0 0 0 0-1.2l-3-4a1 1 0 0 0 -1.6 1.2l2.55 3.4-2.55 3.4a1 1 0 0 0 .2 1.4z" fill="#004fac"/><path d="m26.2 17.6a1 1 0 1 0 1.6-1.2l-2.55-3.4 2.55-3.4a1 1 0 1 0 -1.6-1.2l-3 4a1 1 0 0 0 0 1.2z" fill="#004fac"/><path d="m27 21a1 1 0 0 0 1 1h12a1 1 0 0 0 0-2h-12a1 1 0 0 0 -1 1z" fill="#004fac"/><path d="m24 25h16a1 1 0 0 0 0-2h-16a1 1 0 0 0 0 2z" fill="#004fac"/><path d="m24 28h10a1 1 0 0 0 0-2h-10a1 1 0 0 0 0 2z" fill="#004fac"/><path d="m38 26h-1a1 1 0 0 0 0 2h1a1 1 0 0 0 0-2z" fill="#004fac"/><path d="m24 22h1a1 1 0 0 0 0-2h-1a1 1 0 0 0 0 2z" fill="#004fac"/></g></svg>