<svg height="512" viewBox="0 0 64 64" width="512" xmlns="http://www.w3.org/2000/svg"><path d="m48 32a15.917 15.917 0 0 1 -4.08 10.67 12.142 12.142 0 0 0 -8.92-10.67 5.318 5.318 0 0 0 3-5 6 6 0 0 0 -12 0 5.318 5.318 0 0 0 3 5 12.142 12.142 0 0 0 -8.92 10.67 16 16 0 1 1 27.92-10.67z" fill="#57a4ff"/><circle cx="26" cy="4" fill="#57a4ff" r="2"/><circle cx="38" cy="4" fill="#57a4ff" r="2"/><circle cx="38" cy="60" fill="#57a4ff" r="2"/><circle cx="26" cy="60" fill="#57a4ff" r="2"/><circle cx="60" cy="38" fill="#57a4ff" r="2"/><circle cx="4" cy="38" fill="#57a4ff" r="2"/><circle cx="4" cy="26" fill="#57a4ff" r="2"/><g fill="#004fac"><path d="m19.432 43.407a16.917 16.917 0 0 0 25.136 0 .972.972 0 0 0 .173-.19 17 17 0 1 0 -25.482 0 .972.972 0 0 0 .173.19zm12.568 3.593a14.943 14.943 0 0 1 -10.859-4.682 11.023 11.023 0 0 1 8.088-9.345 1 1 0 0 0 .233-1.86 4.331 4.331 0 0 1 -2.462-4.113 5 5 0 0 1 10 0 4.331 4.331 0 0 1 -2.462 4.113 1 1 0 0 0 .233 1.86 11.023 11.023 0 0 1 8.088 9.345 14.943 14.943 0 0 1 -10.859 4.682zm0-30a14.989 14.989 0 0 1 12.479 23.309 13.082 13.082 0 0 0 -7.314-8.643 6.318 6.318 0 0 0 1.835-4.666 7 7 0 0 0 -14 0 6.318 6.318 0 0 0 1.835 4.666 13.082 13.082 0 0 0 -7.314 8.643 14.989 14.989 0 0 1 12.479-23.309z"/><path d="m44 7a1 1 0 0 0 1-1v-1a1 1 0 0 0 -2 0v1a1 1 0 0 0 1 1z"/><path d="m32 10a1 1 0 0 0 1-1v-2a1 1 0 0 0 -2 0v2a1 1 0 0 0 1 1z"/><path d="m60 35a3 3 0 0 0 -2.827 2.035.9.9 0 0 0 -.173-.035h-5v-10h5a.9.9 0 0 0 .173-.035 3 3 0 1 0 0-1.93.9.9 0 0 0 -.173-.035h-5v-12a1 1 0 0 0 -1-1h-6v-3a1 1 0 0 0 -2 0v3h-4v-5a.9.9 0 0 0 -.035-.173 3 3 0 1 0 -1.93 0 .9.9 0 0 0 -.035.173v5h-10v-5a.9.9 0 0 0 -.035-.173 3 3 0 1 0 -1.93 0 .9.9 0 0 0 -.035.173v5h-4v-6a1 1 0 0 0 -2 0v6h-6a1 1 0 0 0 -1 1v1h-5a1 1 0 0 0 0 2h5v9h-5a.9.9 0 0 0 -.173.035 3 3 0 1 0 0 1.93.9.9 0 0 0 .173.035h5v10h-5a.9.9 0 0 0 -.173.035 3 3 0 1 0 0 1.93.9.9 0 0 0 .173.035h5v12a1 1 0 0 0 1 1h12v5a.9.9 0 0 0 .035.173 3 3 0 1 0 1.93 0 .9.9 0 0 0 .035-.173v-5h4v2a1 1 0 0 0 2 0v-2h4v5a.9.9 0 0 0 .035.173 3 3 0 1 0 1.93 0 .9.9 0 0 0 .035-.173v-5h7v7a1 1 0 0 0 2 0v-7h3a1 1 0 0 0 1-1v-2h4a1 1 0 0 0 0-2h-4v-8h5a.9.9 0 0 0 .173-.035 2.994 2.994 0 1 0 2.827-3.965zm0-10a1 1 0 1 1 -1 1 1 1 0 0 1 1-1zm-22-22a1 1 0 1 1 -1 1 1 1 0 0 1 1-1zm-12 0a1 1 0 1 1 -1 1 1 1 0 0 1 1-1zm-22 24a1 1 0 1 1 1-1 1 1 0 0 1 -1 1zm0 12a1 1 0 1 1 1-1 1 1 0 0 1 -1 1zm22 22a1 1 0 1 1 1-1 1 1 0 0 1 -1 1zm12 0a1 1 0 1 1 1-1 1 1 0 0 1 -1 1zm12-11h-36v-36h36zm10-11a1 1 0 1 1 1-1 1 1 0 0 1 -1 1z"/><path d="m57 31h-2a1 1 0 0 0 0 2h2a1 1 0 0 0 0-2z"/><path d="m2 16h2a1 1 0 0 0 0-2h-2a1 1 0 0 0 0 2z"/><path d="m32 56a1 1 0 0 0 -1 1v1a1 1 0 0 0 2 0v-1a1 1 0 0 0 -1-1z"/><path d="m17 54a1 1 0 0 0 -1 1v2a1 1 0 0 0 2 0v-2a1 1 0 0 0 -1-1z"/><path d="m10 42h-2a1 1 0 0 0 0 2h2a1 1 0 0 0 0-2z"/></g></svg>