<svg height="512" viewBox="0 0 64 64" width="512" xmlns="http://www.w3.org/2000/svg"><g id="CPU-2" data-name="CPU"><path d="m61 18h-58a1 1 0 0 0 -1 1v26a1 1 0 0 0 1 1h58a1 1 0 0 0 1-1v-26a1 1 0 0 0 -1-1zm-51 25h-4v-4h4zm0-18h-4v-4h4zm10 18h-6v-22h6zm30 0h-6v-22h6zm8 0h-4v-4h4zm0-18h-4v-4h4z" fill="#57a4ff"/><path d="m26 26h12v12h-12z" fill="#57a4ff"/><g fill="#004fac"><path d="m61 17h-58a2 2 0 0 0 -2 2v26a2 2 0 0 0 2 2h58a2 2 0 0 0 2-2v-26a2 2 0 0 0 -2-2zm-58 28v-26h58v26z"/><path d="m40 28a1 1 0 0 0 0-2h-1a1 1 0 0 0 -1-1v-1a1 1 0 0 0 -2 0v1h-1v-1a1 1 0 0 0 -2 0v1h-2v-1a1 1 0 0 0 -2 0v1h-1v-1a1 1 0 0 0 -2 0v1a1 1 0 0 0 -1 1h-1a1 1 0 0 0 0 2h1v1h-1a1 1 0 0 0 0 2h1v2h-1a1 1 0 0 0 0 2h1v1h-1a1 1 0 0 0 0 2h1a1 1 0 0 0 1 1v1a1 1 0 0 0 2 0v-1h1v1a1 1 0 0 0 2 0v-1h2v1a1 1 0 0 0 2 0v-1h1v1a1 1 0 0 0 2 0v-1a1 1 0 0 0 1-1h1a1 1 0 0 0 0-2h-1v-1h1a1 1 0 0 0 0-2h-1v-2h1a1 1 0 0 0 0-2h-1v-1zm-13 9v-10h10v10z"/><path d="m10 20h-4a1 1 0 0 0 -1 1v4a1 1 0 0 0 1 1h1v6a1 1 0 0 0 2 0v-6h1a1 1 0 0 0 1-1v-4a1 1 0 0 0 -1-1zm-1 4h-2v-2h2z"/><path d="m10 38h-4a1 1 0 0 0 -1 1v4a1 1 0 0 0 1 1h4a1 1 0 0 0 1-1v-4a1 1 0 0 0 -1-1zm-1 4h-2v-2h2z"/><path d="m9 36v-1a1 1 0 0 0 -2 0v1a1 1 0 0 0 2 0z"/><path d="m58 20h-4a1 1 0 0 0 -1 1v4a1 1 0 0 0 1 1h1v6a1 1 0 0 0 2 0v-6h1a1 1 0 0 0 1-1v-4a1 1 0 0 0 -1-1zm-1 4h-2v-2h2z"/><path d="m58 38h-4a1 1 0 0 0 -1 1v4a1 1 0 0 0 1 1h4a1 1 0 0 0 1-1v-4a1 1 0 0 0 -1-1zm-1 4h-2v-2h2z"/><path d="m57 36v-1a1 1 0 0 0 -2 0v1a1 1 0 0 0 2 0z"/><path d="m20 20h-6a1 1 0 0 0 -1 1v22a1 1 0 0 0 1 1h6a1 1 0 0 0 1-1v-22a1 1 0 0 0 -1-1zm-1 22h-4v-20h4z"/><path d="m50 20h-6a1 1 0 0 0 -1 1v22a1 1 0 0 0 1 1h6a1 1 0 0 0 1-1v-22a1 1 0 0 0 -1-1zm-1 22h-4v-20h4z"/><path d="m31 28h-2a1 1 0 0 0 -1 1v3a1 1 0 0 0 2 0v-2h1a1 1 0 0 0 0-2z"/><path d="m35 28h-1a1 1 0 0 0 0 2h1a1 1 0 0 0 0-2z"/></g></g></svg>