<svg id="Capa_1" enable-background="new 0 0 64 64" height="512" viewBox="0 0 64 64" width="512" xmlns="http://www.w3.org/2000/svg"><g fill="#57a4ff"><path d="m24 45h16c.552 0 1 .448 1 1v2c0 .552-.448 1-1 1h-16c-.552 0-1-.448-1-1v-2c0-.552.448-1 1-1z"/><path d="m25 49h14c.552 0 1 .448 1 1v2c0 .552-.448 1-1 1h-14c-.552 0-1-.448-1-1v-2c0-.552.448-1 1-1z"/><path d="m27 53h10v5h-10z"/></g><path d="m51.9 18.978c-1.114-10.989-10.926-18.995-21.915-17.881s-18.995 10.926-17.881 21.915c.6 5.922 3.808 11.27 8.75 14.588 1.958 1.298 3.138 3.488 3.146 5.837v.563c-1.105 0-2 .895-2 2v2c.002.722.395 1.386 1.027 1.736-.015.087-.024.175-.027.264v2c0 1.105.895 2 2 2h1v4c0 .552.448 1 1 1h1v1c0 1.657 1.343 3 3 3h2c1.657 0 3-1.343 3-3v-1h1c.552 0 1-.448 1-1v-4h1c1.105 0 2-.895 2-2v-2c-.003-.089-.012-.177-.027-.264.632-.35 1.025-1.014 1.027-1.736v-2c0-1.105-.895-2-2-2v-.561c.02-2.363 1.215-4.561 3.186-5.863 6.103-4.126 9.45-11.268 8.714-18.598zm-17.9 41.022c0 .552-.448 1-1 1h-2c-.552 0-1-.448-1-1v-1h4zm2-3h-8v-3h8zm-11-5v-2h14v2zm15-4h-16v-2h16zm-10-24h4v20h-4zm12.067 11.918c-2.522 1.674-4.047 4.494-4.067 7.521v.561h-2v-20s2.415-.006 2.5 0c2.485 0 4.5-2.015 4.5-4.5s-2.015-4.5-4.5-4.5-4.5 2.015-4.5 4.5c.006.085 0 2.5 0 2.5h-4s-.006-2.415 0-2.5c0-2.485-2.015-4.5-4.5-4.5s-4.5 2.015-4.5 4.5 2.015 4.5 4.5 4.5c.085-.006 2.5 0 2.5 0v20h-2v-.563c-.009-3.014-1.52-5.825-4.03-7.494-8.254-5.541-10.453-16.724-4.912-24.977s16.724-10.453 24.978-4.912c4.445 2.984 7.331 7.793 7.874 13.119.663 6.599-2.349 13.03-7.843 16.745zm-6.067-16.418c0-1.381 1.119-2.5 2.5-2.5s2.5 1.119 2.5 2.5-1.119 2.5-2.5 2.5c-.085.006-2.5 0-2.5 0s-.006-2.415 0-2.5zm-10.5 2.5c-1.381 0-2.5-1.119-2.5-2.5s1.119-2.5 2.5-2.5 2.5 1.119 2.5 2.5c.006.085 0 2.5 0 2.5s-2.415.006-2.5 0z" fill="#004fac"/><path d="m32 5c-8.832.01-15.99 7.168-16 16 0 .552.448 1 1 1s1-.448 1-1c.008-7.729 6.271-13.992 14-14 .552 0 1-.448 1-1s-.448-1-1-1z" fill="#004fac"/><path d="m18.505 24.734c-.131-.537-.672-.865-1.208-.735-.537.131-.865.672-.735 1.208.005.02.01.039.016.058.201.728.453 1.442.756 2.134.159.365.519.6.917.6.552 0 1-.448.999-1.001 0-.137-.028-.273-.083-.399-.264-.605-.486-1.228-.662-1.865z" fill="#004fac"/></svg>