<svg height="512" viewBox="0 0 64 64" width="512" xmlns="http://www.w3.org/2000/svg"><g id="Idea-3" data-name="Idea"><path d="m32 16a16 16 0 1 0 16 16 16 16 0 0 0 -16-16zm3 27h-6v-3h6zm1.5-9.65a4.091 4.091 0 0 0 -1.5 3.12v.53h-6v-.52a4.164 4.164 0 0 0 -1.54-3.16 7.009 7.009 0 0 1 -2.46-5.57 7.094 7.094 0 0 1 6.88-6.75 6.993 6.993 0 0 1 4.62 12.35z" fill="#57a4ff"/><path d="m27 37h10v3h-10z" fill="#57a4ff"/><circle cx="32" cy="6" fill="#57a4ff" r="4"/><circle cx="32" cy="58" fill="#57a4ff" r="4"/><circle cx="58" cy="32" fill="#57a4ff" r="4"/><circle cx="6" cy="32" fill="#57a4ff" r="4"/><circle cx="13.615" cy="13.615" fill="#57a4ff" r="4"/><circle cx="50.385" cy="50.385" fill="#57a4ff" r="4"/><circle cx="50.385" cy="13.615" fill="#57a4ff" r="4"/><circle cx="13.615" cy="50.385" fill="#57a4ff" r="4"/><g fill="#004fac"><path d="m63 32a4.989 4.989 0 0 0 -4.461-4.945 26.962 26.962 0 0 0 -4.283-10.315 4.972 4.972 0 0 0 -7-7 26.937 26.937 0 0 0 -10.311-4.279 4.971 4.971 0 0 0 -9.89 0 26.937 26.937 0 0 0 -10.313 4.283 4.973 4.973 0 0 0 -7 7 26.962 26.962 0 0 0 -4.281 10.311 4.971 4.971 0 0 0 0 9.89 26.962 26.962 0 0 0 4.283 10.315 4.972 4.972 0 0 0 7 7 26.937 26.937 0 0 0 10.313 4.283 4.971 4.971 0 0 0 9.89 0 26.937 26.937 0 0 0 10.313-4.283 4.973 4.973 0 0 0 7-7 26.962 26.962 0 0 0 4.283-10.315 4.989 4.989 0 0 0 4.457-4.945zm-12.615 13.385a4.978 4.978 0 0 0 -4.4 7.322 24.947 24.947 0 0 1 -9.227 3.834 4.966 4.966 0 0 0 -9.514 0 24.947 24.947 0 0 1 -9.227-3.834 4.962 4.962 0 0 0 -6.725-6.725 24.979 24.979 0 0 1 -3.832-9.225 4.966 4.966 0 0 0 0-9.514 24.979 24.979 0 0 1 3.832-9.225 4.968 4.968 0 0 0 6.725-6.725 24.947 24.947 0 0 1 9.227-3.834 4.966 4.966 0 0 0 9.514 0 24.947 24.947 0 0 1 9.227 3.834 4.962 4.962 0 0 0 6.725 6.725 24.979 24.979 0 0 1 3.832 9.225 4.966 4.966 0 0 0 0 9.514 24.979 24.979 0 0 1 -3.832 9.225 4.956 4.956 0 0 0 -2.325-.597zm10.615-13.385a3 3 0 1 1 -3-3 3 3 0 0 1 3 3zm-8.494-20.506a3 3 0 0 1 0 4.243 3.072 3.072 0 0 1 -4.242 0 3 3 0 1 1 4.242-4.243zm-20.506-8.494a3 3 0 1 1 -3 3 3 3 0 0 1 3-3zm-20.506 8.494a3 3 0 0 1 4.242 4.243 3.072 3.072 0 0 1 -4.242 0 3 3 0 0 1 0-4.243zm-8.494 20.506a3 3 0 1 1 3 3 3 3 0 0 1 -3-3zm8.494 20.506a3 3 0 1 1 4.242 0 3.072 3.072 0 0 1 -4.242 0zm20.506 8.494a3 3 0 1 1 3-3 3 3 0 0 1 -3 3zm20.506-8.494a3.072 3.072 0 0 1 -4.242 0 3 3 0 1 1 4.242 0z"/><path d="m20 22.419a1 1 0 0 0 .75-.338 15.132 15.132 0 0 1 2.7-2.405 1 1 0 0 0 -1.15-1.642 17.072 17.072 0 0 0 -3.057 2.724 1 1 0 0 0 .757 1.661z"/><path d="m43.193 22.014a1 1 0 0 0 1.491-1.333 17.119 17.119 0 0 0 -3.074-2.705 1 1 0 0 0 -1.132 1.648 15.126 15.126 0 0 1 2.715 2.39z"/><path d="m46.554 28.352a1 1 0 0 0 .968.757 1.027 1.027 0 0 0 .245-.03 1 1 0 0 0 .726-1.213 16.971 16.971 0 0 0 -1.468-3.825 1 1 0 1 0 -1.767.938 14.975 14.975 0 0 1 1.296 3.373z"/><path d="m26.281 18.053a1 1 0 0 0 .358-.067 14.946 14.946 0 0 1 3.5-.872 1 1 0 0 0 -.245-1.985 16.907 16.907 0 0 0 -3.975.989 1 1 0 0 0 .357 1.935z"/><path d="m17.439 35.619a15.082 15.082 0 0 1 -.439-3.588 1 1 0 0 0 -1-1 1 1 0 0 0 -1 1 17.1 17.1 0 0 0 .5 4.064 1 1 0 1 0 1.941-.481z"/><path d="m33.761 17.1a14.938 14.938 0 0 1 3.512.851 1.016 1.016 0 0 0 .352.064 1 1 0 0 0 .352-1.936 16.944 16.944 0 0 0 -3.984-.965 1 1 0 0 0 -.232 1.986z"/><path d="m16.217 29.176a.967.967 0 0 0 .237.029 1 1 0 0 0 .971-.764 14.934 14.934 0 0 1 1.275-3.382 1 1 0 0 0 -1.773-.927 16.99 16.99 0 0 0 -1.445 3.836 1 1 0 0 0 .735 1.208z"/><path d="m40.528 44.341a14.92 14.92 0 0 1 -3.195 1.684 1 1 0 0 0 .355 1.935 1.01 1.01 0 0 0 .356-.066 16.949 16.949 0 0 0 3.623-1.908 1 1 0 0 0 -1.139-1.645z"/><path d="m46.637 38.547a1 1 0 0 0 -1.35.42 14.967 14.967 0 0 1 -2.056 2.975 1 1 0 0 0 1.5 1.326 17.049 17.049 0 0 0 2.328-3.37 1 1 0 0 0 -.422-1.351z"/><path d="m18.727 38.995a1 1 0 0 0 -1.77.933 17.061 17.061 0 0 0 2.335 3.365 1 1 0 0 0 1.494-1.329 15 15 0 0 1 -2.059-2.969z"/><path d="m48 30.967a1.028 1.028 0 0 0 -1 1.033 15.091 15.091 0 0 1 -.432 3.589 1 1 0 0 0 .732 1.211.983.983 0 0 0 .239.029 1 1 0 0 0 .971-.762 17.1 17.1 0 0 0 .49-4.067v-.066a.971.971 0 0 0 -1-.967z"/><path d="m26.7 46.036a14.952 14.952 0 0 1 -3.2-1.678 1 1 0 0 0 -1.135 1.648 17.046 17.046 0 0 0 3.63 1.9 1 1 0 1 0 .707-1.871z"/><path d="m33.825 46.89a15.355 15.355 0 0 1 -3.617 0 1 1 0 0 0 -.236 1.986 17.283 17.283 0 0 0 2.028.124 17.045 17.045 0 0 0 2.064-.125 1 1 0 1 0 -.24-1.985z"/><path d="m37 41a1 1 0 0 0 1-1v-3a1 1 0 0 0 -1-1h-.945a3.147 3.147 0 0 1 1.093-1.883 8 8 0 0 0 -5.281-14.117 8.088 8.088 0 0 0 -7.861 7.708 7.948 7.948 0 0 0 2.809 6.377 3.275 3.275 0 0 1 1.127 1.915h-.942a1 1 0 0 0 -1 1v3a1 1 0 0 0 1 1h1v2a1 1 0 0 0 1 1h6a1 1 0 0 0 1-1v-2zm-1-2h-8v-1h8zm-7.89-6.437a5.964 5.964 0 0 1 -2.11-4.783 6 6 0 0 1 10.205-4.058 5.995 5.995 0 0 1 -.348 8.864 5.13 5.13 0 0 0 -1.834 3.414h-4.047a5.238 5.238 0 0 0 -1.866-3.437zm5.89 9.437h-4v-1h4z"/></g></g></svg>