<svg height="512" viewBox="0 0 64 64" width="512" xmlns="http://www.w3.org/2000/svg"><g id="Idea-4" data-name="Idea"><g fill="#57a4ff"><rect height="4" rx="1" width="18" x="23" y="45"/><rect height="4" rx="1" width="16" x="24" y="49"/><path d="m27 53h10v5h-10z"/><path d="m43 24v-4h-3.262a7.968 7.968 0 0 0 -.852-2.058l2.306-2.306-2.828-2.828-2.306 2.306a7.968 7.968 0 0 0 -2.058-.852v-3.262h-4v3.262a7.968 7.968 0 0 0 -2.058.852l-2.306-2.306-2.828 2.828 2.306 2.306a7.968 7.968 0 0 0 -.852 2.058h-3.262v4h3.262a7.968 7.968 0 0 0 .852 2.058l-2.306 2.306 2.828 2.828 2.306-2.306a7.968 7.968 0 0 0 2.058.852v3.262h4v-3.262a7.968 7.968 0 0 0 2.058-.852l2.306 2.306 2.828-2.828-2.306-2.306a7.968 7.968 0 0 0 .852-2.058z"/><circle cx="32" cy="22" r="2"/></g><path d="m51.9 18.978a20 20 0 1 0 -31.046 18.622 7.032 7.032 0 0 1 3.146 5.837v.563a2 2 0 0 0 -2 2v2a1.991 1.991 0 0 0 1.027 1.736 1.936 1.936 0 0 0 -.027.264v2a2 2 0 0 0 2 2h1v4a1 1 0 0 0 1 1h1v1a3 3 0 0 0 3 3h2a3 3 0 0 0 3-3v-1h1a1 1 0 0 0 1-1v-4h1a2 2 0 0 0 2-2v-2a1.936 1.936 0 0 0 -.027-.264 1.991 1.991 0 0 0 1.027-1.736v-2a2 2 0 0 0 -2-2v-.561a7.1 7.1 0 0 1 3.186-5.863 20.034 20.034 0 0 0 8.714-18.598zm-17.9 41.022a1 1 0 0 1 -1 1h-2a1 1 0 0 1 -1-1v-1h4zm2-3h-8v-3h8zm-11-5v-2h14v2zm15-4h-16v-2h16zm2.066-12.082a9.1 9.1 0 0 0 -4.066 7.521v.561h-12v-.563a9.032 9.032 0 0 0 -4.03-7.494 18 18 0 1 1 27.94-16.77 18.038 18.038 0 0 1 -7.843 16.745z" fill="#004fac"/><path d="m32 7a1 1 0 0 0 0-2 16.019 16.019 0 0 0 -16 16 1 1 0 0 0 2 0 14.015 14.015 0 0 1 14-14z" fill="#004fac"/><path d="m18.505 24.734a1 1 0 1 0 -1.927.532 15.824 15.824 0 0 0 .756 2.134 1 1 0 0 0 .917.6 1 1 0 0 0 .916-1.4 14.032 14.032 0 0 1 -.662-1.866z" fill="#004fac"/><path d="m43 19h-2.522a9.266 9.266 0 0 0 -.362-.873l1.784-1.784a1 1 0 0 0 0-1.414l-2.829-2.829a1 1 0 0 0 -1.414 0l-1.784 1.783a9.266 9.266 0 0 0 -.873-.361v-2.522a1 1 0 0 0 -1-1h-4a1 1 0 0 0 -1 1v2.522a9.266 9.266 0 0 0 -.873.362l-1.784-1.784a1 1 0 0 0 -1.414 0l-2.829 2.829a1 1 0 0 0 0 1.414l1.783 1.784a9.266 9.266 0 0 0 -.362.873h-2.521a1 1 0 0 0 -1 1v4a1 1 0 0 0 1 1h2.522a9.266 9.266 0 0 0 .362.873l-1.784 1.784a1 1 0 0 0 0 1.414l2.829 2.829a1 1 0 0 0 1.414 0l1.784-1.783a9.266 9.266 0 0 0 .873.362v2.521a1 1 0 0 0 1 1h4a1 1 0 0 0 1-1v-2.522a9.266 9.266 0 0 0 .873-.362l1.784 1.784a1 1 0 0 0 1.414 0l2.829-2.829a1 1 0 0 0 0-1.414l-1.783-1.784a9.266 9.266 0 0 0 .361-.873h2.522a1 1 0 0 0 1-1v-4a1 1 0 0 0 -1-1zm-1 4h-2.262a1 1 0 0 0 -.968.75 7 7 0 0 1 -.745 1.8 1 1 0 0 0 .154 1.216l1.6 1.6-1.414 1.414-1.6-1.6a1 1 0 0 0 -1.216-.154 7 7 0 0 1 -1.8.745 1 1 0 0 0 -.75.968v2.261h-1.999v-2.262a1 1 0 0 0 -.75-.968 7 7 0 0 1 -1.8-.745 1 1 0 0 0 -1.216.154l-1.6 1.6-1.414-1.414 1.6-1.6a1 1 0 0 0 .154-1.216 7 7 0 0 1 -.745-1.8 1 1 0 0 0 -.968-.75h-2.261v-1.999h2.262a1 1 0 0 0 .968-.75 7 7 0 0 1 .745-1.8 1 1 0 0 0 -.154-1.216l-1.6-1.6 1.414-1.414 1.6 1.6a1 1 0 0 0 1.216.154 7 7 0 0 1 1.8-.745 1 1 0 0 0 .75-.968v-2.261h2v2.262a1 1 0 0 0 .75.968 7 7 0 0 1 1.8.745 1 1 0 0 0 1.216-.154l1.6-1.6 1.414 1.414-1.6 1.6a1 1 0 0 0 -.154 1.216 7 7 0 0 1 .745 1.8 1 1 0 0 0 .968.75h2.26z" fill="#004fac"/><path d="m32 19a3 3 0 1 0 3 3 3 3 0 0 0 -3-3zm0 4a1 1 0 1 1 1-1 1 1 0 0 1 -1 1z" fill="#004fac"/></g></svg>