<svg height="512" viewBox="0 0 64 64" width="512" xmlns="http://www.w3.org/2000/svg"><g id="Idea-5" data-name="Idea"><g fill="#57a4ff"><rect height="4" rx="1" width="18" x="12" y="45"/><rect height="4" rx="1" width="16" x="13" y="49"/><path d="m16 53h10v5h-10z"/><circle cx="59" cy="28" r="3"/><circle cx="55" cy="42" r="3"/><circle cx="51" cy="55" r="3"/></g><path d="m21 7a1 1 0 0 0 0-2 16.019 16.019 0 0 0 -16 16 1 1 0 0 0 2 0 14.015 14.015 0 0 1 14-14z" fill="#004fac"/><path d="m7.506 24.734a1 1 0 0 0 -1.928.532 15.863 15.863 0 0 0 .755 2.134 1 1 0 0 0 .918.6.984.984 0 0 0 .4-.083 1 1 0 0 0 .516-1.317 13.909 13.909 0 0 1 -.661-1.866z" fill="#004fac"/><path d="m59 24a4 4 0 0 0 -3.866 3.027 1.026 1.026 0 0 0 -.134-.027h-3a1 1 0 0 0 -.6.2l-6.4 4.8v-7.586l2.908-2.908a3.977 3.977 0 1 0 -.908-2.506 3.9 3.9 0 0 0 .054.532l-3.761 3.761a1 1 0 0 0 -.293.707v17.586l-4.414 4.414h-7.586a2 2 0 0 0 -2-2v-.561a7.1 7.1 0 0 1 3.186-5.863 20 20 0 1 0 -22.332.024 7.032 7.032 0 0 1 3.146 5.837v.563a2 2 0 0 0 -2 2v2a1.991 1.991 0 0 0 1.027 1.736 1.92 1.92 0 0 0 -.027.264v2a2 2 0 0 0 2 2h1v4a1 1 0 0 0 1 1h1v1a3 3 0 0 0 3 3h2a3 3 0 0 0 3-3v-1h1a1 1 0 0 0 1-1v-4h1a2 2 0 0 0 2-2v-2a1.92 1.92 0 0 0 -.027-.264 1.991 1.991 0 0 0 1.027-1.736h8a1 1 0 0 0 .707-.293l3.293-3.293v5.586a1 1 0 0 0 .293.707l3.761 3.761a3.9 3.9 0 0 0 -.054.532 4.05 4.05 0 1 0 .908-2.506l-2.908-2.908v-10.172l3.293 3.293a1 1 0 0 0 .707.293h2a1.026 1.026 0 0 0 .134-.027 4 4 0 1 0 0-1.946 1.026 1.026 0 0 0 -.134-.027h-1.586l-4.414-4.414v-2.086l7.333-5.5h2.667a1.026 1.026 0 0 0 .134-.027 3.994 3.994 0 1 0 3.866-4.973zm-8-7a2 2 0 1 1 -2 2 2 2 0 0 1 2-2zm-40.03 18.943a18 18 0 1 1 20.1-.025 9.1 9.1 0 0 0 -4.07 7.521v.561h-2v-19h2a.99.99 0 0 0 .25-.05.99.99 0 0 0 .25.05 4.5 4.5 0 1 0 -4.5-4.5.99.99 0 0 0 .05.25.99.99 0 0 0 -.05.25v2h-4v-2a.99.99 0 0 0 -.05-.25.99.99 0 0 0 .05-.25 4.5 4.5 0 1 0 -4.5 4.5.99.99 0 0 0 .25-.05.99.99 0 0 0 .25.05h2v19h-2v-.563a9.032 9.032 0 0 0 -4.03-7.494zm8.03 8.057v-19h4v19zm5.95-23.25a.99.99 0 0 0 .05-.25 2.5 2.5 0 1 1 2.5 2.5.99.99 0 0 0 -.25.05.99.99 0 0 0 -.25-.05h-2v-2a.99.99 0 0 0 -.05-.25zm-9.95 2.25a.99.99 0 0 0 -.25.05.99.99 0 0 0 -.25-.05 2.5 2.5 0 1 1 2.5-2.5.99.99 0 0 0 .05.25.99.99 0 0 0 -.05.25v2zm-2 23h16v2h-16zm10 14a1 1 0 0 1 -1 1h-2a1 1 0 0 1 -1-1v-1h4zm2-3h-8v-3h8zm-11-5v-2h14v2zm37 1a2 2 0 1 1 -2 2 2 2 0 0 1 2-2zm4-13a2 2 0 1 1 -2 2 2 2 0 0 1 2-2zm4-10a2 2 0 1 1 2-2 2 2 0 0 1 -2 2z" fill="#004fac"/><path d="m57 20h2a1 1 0 0 0 0-2h-2a1 1 0 0 0 0 2z" fill="#004fac"/><path d="m58 54h-1a1 1 0 0 0 0 2h1a1 1 0 0 0 0-2z" fill="#004fac"/></g></svg>