<svg height="512" viewBox="0 0 64 64" width="512" xmlns="http://www.w3.org/2000/svg"><g id="Network-2" data-name="Network"><g fill="#57a4ff"><circle cx="32" cy="6" r="4"/><circle cx="32" cy="58" r="4"/><circle cx="58" cy="32" r="4"/><circle cx="6" cy="32" r="4"/><circle cx="13.615" cy="13.615" r="4"/><circle cx="50.385" cy="50.385" r="4"/><circle cx="50.385" cy="13.615" r="4"/><circle cx="13.615" cy="50.385" r="4"/><path d="m48 32a15.917 15.917 0 0 1 -4.08 10.67 12.142 12.142 0 0 0 -8.92-10.67 5.318 5.318 0 0 0 3-5 6 6 0 0 0 -12 0 5.318 5.318 0 0 0 3 5 12.142 12.142 0 0 0 -8.92 10.67 16 16 0 1 1 27.92-10.67z"/></g><path d="m63 32a4.989 4.989 0 0 0 -4.461-4.945 26.962 26.962 0 0 0 -4.283-10.315 4.972 4.972 0 0 0 -7-7 26.937 26.937 0 0 0 -10.311-4.279 4.971 4.971 0 0 0 -9.89 0 26.937 26.937 0 0 0 -10.313 4.283 4.973 4.973 0 0 0 -7 7 26.962 26.962 0 0 0 -4.281 10.311 4.971 4.971 0 0 0 0 9.89 26.962 26.962 0 0 0 4.283 10.315 4.972 4.972 0 0 0 7 7 26.937 26.937 0 0 0 10.313 4.283 4.971 4.971 0 0 0 9.89 0 26.937 26.937 0 0 0 10.313-4.283 4.973 4.973 0 0 0 7-7 26.962 26.962 0 0 0 4.283-10.315 4.989 4.989 0 0 0 4.457-4.945zm-12.615 13.385a4.978 4.978 0 0 0 -4.4 7.322 24.947 24.947 0 0 1 -9.227 3.834 4.966 4.966 0 0 0 -9.514 0 24.947 24.947 0 0 1 -9.227-3.834 4.962 4.962 0 0 0 -6.725-6.725 24.979 24.979 0 0 1 -3.832-9.225 4.966 4.966 0 0 0 0-9.514 24.979 24.979 0 0 1 3.832-9.225 4.968 4.968 0 0 0 6.724-6.727 24.964 24.964 0 0 1 9.2-3.837 5 5 0 0 0 9.572 0 24.964 24.964 0 0 1 9.2 3.837 4.962 4.962 0 0 0 6.724 6.727 24.979 24.979 0 0 1 3.832 9.225 4.966 4.966 0 0 0 0 9.514 24.979 24.979 0 0 1 -3.832 9.225 4.956 4.956 0 0 0 -2.327-.597zm10.615-13.385a3 3 0 1 1 -3-3 3 3 0 0 1 3 3zm-8.494-20.506a3 3 0 0 1 0 4.243 3.072 3.072 0 0 1 -4.242 0 3 3 0 1 1 4.242-4.243zm-20.506-8.494a3 3 0 0 1 3 3 1.946 1.946 0 0 1 -.005.2s0 .009 0 .014v.012a3 3 0 0 1 -5.986 0v-.012s0-.009 0-.014a1.946 1.946 0 0 1 -.009-.2 3 3 0 0 1 3-3zm-20.506 8.494a3 3 0 0 1 4.242 4.243 3.072 3.072 0 0 1 -4.242 0 3 3 0 0 1 0-4.243zm-8.494 20.506a3 3 0 1 1 3 3 3 3 0 0 1 -3-3zm8.494 20.506a3 3 0 1 1 4.242 0 3.072 3.072 0 0 1 -4.242 0zm20.506 8.494a3 3 0 1 1 3-3 3 3 0 0 1 -3 3zm20.506-8.494a3.072 3.072 0 0 1 -4.242 0 3 3 0 1 1 4.242 0z" fill="#004fac"/><path d="m32 15a16.973 16.973 0 0 0 -12.741 28.217.972.972 0 0 0 .173.19 16.917 16.917 0 0 0 25.136 0 .972.972 0 0 0 .173-.19 16.973 16.973 0 0 0 -12.741-28.217zm0 32a14.943 14.943 0 0 1 -10.859-4.682 11.023 11.023 0 0 1 8.088-9.345 1 1 0 0 0 .233-1.86 4.331 4.331 0 0 1 -2.462-4.113 5 5 0 0 1 10 0 4.331 4.331 0 0 1 -2.462 4.113 1 1 0 0 0 .233 1.86 11.023 11.023 0 0 1 8.088 9.345 14.943 14.943 0 0 1 -10.859 4.682zm12.479-6.691a13.082 13.082 0 0 0 -7.314-8.643 6.318 6.318 0 0 0 1.835-4.666 7 7 0 0 0 -14 0 6.318 6.318 0 0 0 1.835 4.666 13.082 13.082 0 0 0 -7.314 8.643 15 15 0 1 1 24.958 0z" fill="#004fac"/></g></svg>