<svg height="512" viewBox="0 0 64 64" width="512" xmlns="http://www.w3.org/2000/svg"><g id="Network-3" data-name="Network"><g fill="#57a4ff"><path d="m48 18a15.917 15.917 0 0 1 -4.08 10.67 12.142 12.142 0 0 0 -8.92-10.67 5.318 5.318 0 0 0 3-5 6 6 0 0 0 -12 0 5.318 5.318 0 0 0 3 5 12.142 12.142 0 0 0 -8.92 10.67 16 16 0 1 1 27.92-10.67z"/><circle cx="32" cy="56" r="6"/><circle cx="15" cy="52" r="6"/><circle cx="49" cy="52" r="4"/></g><path d="m49.98 47.1a.826.826 0 0 0 .02-.1v-5a1 1 0 0 0 -1-1h-16v-6c0-.018-.009-.033-.01-.05a16.942 16.942 0 0 0 11.578-5.542.929.929 0 0 0 .173-.192 17 17 0 1 0 -25.482 0 .929.929 0 0 0 .173.192 16.942 16.942 0 0 0 11.578 5.542c0 .017-.01.032-.01.05v6h-16a1 1 0 0 0 -1 1v3a.657.657 0 0 0 .016.077 7 7 0 1 0 1.968 0 .657.657 0 0 0 .016-.077v-2h15v6a.657.657 0 0 0 .016.077 7 7 0 1 0 1.968 0 .657.657 0 0 0 .016-.077v-6h15v4a.826.826 0 0 0 .02.1 5 5 0 1 0 1.96 0zm-17.98-44.1a14.989 14.989 0 0 1 12.479 23.309 13.083 13.083 0 0 0 -7.313-8.643 6.317 6.317 0 0 0 1.834-4.666 7 7 0 0 0 -14 0 6.317 6.317 0 0 0 1.834 4.666 13.083 13.083 0 0 0 -7.313 8.643 14.989 14.989 0 0 1 12.479-23.309zm-10.859 25.318a11.024 11.024 0 0 1 8.089-9.345 1 1 0 0 0 .232-1.86 4.331 4.331 0 0 1 -2.462-4.113 5 5 0 0 1 10 0 4.331 4.331 0 0 1 -2.462 4.113 1 1 0 0 0 .232 1.86 11.024 11.024 0 0 1 8.089 9.345 14.934 14.934 0 0 1 -21.718 0zm-1.141 23.682a5 5 0 1 1 -5-5 5.006 5.006 0 0 1 5 5zm17 4a5 5 0 1 1 -5-5 5.006 5.006 0 0 1 5 5zm12-1a3 3 0 1 1 3-3 3 3 0 0 1 -3 3z" fill="#004fac"/></g></svg>