<svg height="512" viewBox="0 0 64 64" width="512" xmlns="http://www.w3.org/2000/svg"><g id="Network-4" data-name="Network"><g fill="#57a4ff"><path d="m32 16a16 16 0 1 0 16 16 16 16 0 0 0 -16-16zm0 25a9 9 0 1 1 9-9 9 9 0 0 1 -9 9z"/><circle cx="6" cy="32" r="4"/><circle cx="32" cy="7" r="5"/><circle cx="32" cy="7" r="2"/><circle cx="32" cy="57" r="5"/><circle cx="32" cy="57" r="2"/><circle cx="56" cy="8" r="3"/><circle cx="51" cy="51" r="3"/></g><path d="m32 22a10 10 0 1 0 10 10 10.011 10.011 0 0 0 -10-10zm0 18a8 8 0 1 1 8-8 8.009 8.009 0 0 1 -8 8z" fill="#004fac"/><path d="m58 27a5.007 5.007 0 0 0 -4.9 4.02.826.826 0 0 0 -.1-.02h-4c-.018 0-.033.009-.05.01a16.906 16.906 0 0 0 -4.265-10.288c.007-.007.016-.008.022-.015l9-9a.977.977 0 0 0 .206-.31 4.035 4.035 0 1 0 -1.31-1.31.977.977 0 0 0 -.31.206l-9 9c-.007.006-.008.015-.015.022a16.906 16.906 0 0 0 -10.288-4.265c0-.017.01-.032.01-.05v-2c0-.031-.015-.057-.018-.088a6 6 0 1 0 -1.964 0c0 .031-.018.057-.018.088v2c0 .018.009.033.01.05a17 17 0 0 0 -15.96 15.96c-.017 0-.032-.01-.05-.01h-4a.826.826 0 0 0 -.1.02 5 5 0 1 0 0 1.96.826.826 0 0 0 .1.02h4c.018 0 .033-.009.05-.01a16.906 16.906 0 0 0 4.265 10.288c-.007.007-.016.008-.022.015l-4 4a.977.977 0 0 0 -.206.31 4.035 4.035 0 1 0 1.31 1.31.977.977 0 0 0 .31-.206l4-4c.007-.006.008-.015.015-.022a16.906 16.906 0 0 0 10.288 4.265c0 .017-.01.032-.01.05v2c0 .031.015.057.018.088a6 6 0 1 0 1.964 0c0-.031.018-.057.018-.088v-2c0-.018-.009-.033-.01-.05a16.906 16.906 0 0 0 10.288-4.265c.007.007.008.016.015.022l4 4a.977.977 0 0 0 .31.206 4.035 4.035 0 1 0 1.31-1.31.977.977 0 0 0 -.206-.31l-4-4c-.006-.007-.015-.008-.022-.015a16.906 16.906 0 0 0 4.265-10.288c.017 0 .032.01.05.01h4a.826.826 0 0 0 .1-.02 5 5 0 1 0 4.9-5.98zm-2-21a2 2 0 1 1 -2 2 2 2 0 0 1 2-2zm-50 29a3 3 0 1 1 3-3 3 3 0 0 1 -3 3zm7 18a2 2 0 1 1 2-2 2 2 0 0 1 -2 2zm38-4a2 2 0 1 1 -2 2 2 2 0 0 1 2-2zm-23-42a4 4 0 1 1 4 4 4 4 0 0 1 -4-4zm8 50a4 4 0 1 1 -4-4 4 4 0 0 1 4 4zm-4-10a15 15 0 1 1 15-15 15.017 15.017 0 0 1 -15 15zm26-12a3 3 0 1 1 3-3 3 3 0 0 1 -3 3z" fill="#004fac"/><path d="m35 7a3 3 0 1 0 -3 3 3 3 0 0 0 3-3zm-4 0a1 1 0 1 1 1 1 1 1 0 0 1 -1-1z" fill="#004fac"/><path d="m29 57a3 3 0 1 0 3-3 3 3 0 0 0 -3 3zm4 0a1 1 0 1 1 -1-1 1 1 0 0 1 1 1z" fill="#004fac"/><path d="m7 11a3.97 3.97 0 0 0 2.087-.6.977.977 0 0 0 .206.31l4 4a1 1 0 0 0 1.414-1.414l-4-4a.977.977 0 0 0 -.31-.206 3.99 3.99 0 1 0 -3.397 1.91zm0-6a2 2 0 1 1 -2 2 2 2 0 0 1 2-2z" fill="#004fac"/><path d="m15.293 16.707 2 2a1 1 0 0 0 1.414-1.414l-2-2a1 1 0 0 0 -1.414 1.414z" fill="#004fac"/><path d="m56.707 55.293a1 1 0 0 0 -1.414 1.414l2 2a1 1 0 0 0 1.414-1.414z" fill="#004fac"/></g></svg>