<svg height="512" viewBox="0 0 64 64" width="512" xmlns="http://www.w3.org/2000/svg"><g id="Network-5" data-name="Network"><g fill="#57a4ff"><path d="m32 2a7 7 0 1 0 7 7 6.995 6.995 0 0 0 -7-7zm0 11a4 4 0 1 1 4-4 4 4 0 0 1 -4 4z"/><circle cx="32" cy="59" r="3"/><circle cx="22" cy="49" r="3"/><circle cx="42" cy="47" r="3"/><circle cx="56" cy="39" r="3"/></g><path d="m37 9a5 5 0 1 0 -5 5 5.006 5.006 0 0 0 5-5zm-8 0a3 3 0 1 1 3 3 3 3 0 0 1 -3-3z" fill="#004fac"/><path d="m56.973 35.134a1.026 1.026 0 0 0 .027-.134v-5a1 1 0 0 0 -.293-.707l-9-9a1 1 0 0 0 -.707-.293h-14v-3c0-.024-.012-.044-.014-.067a8 8 0 1 0 -1.972 0c0 .023-.014.043-.014.067v7h-14a1 1 0 0 0 -.707.293l-9 9a1 1 0 0 0 -.293.707v5a1.026 1.026 0 0 0 .027.134 4 4 0 1 0 1.946 0 1.026 1.026 0 0 0 .027-.134v-4.586l8.414-8.414h13.586v2.586l-9.707 9.707a1 1 0 0 0 -.293.707v6a1.026 1.026 0 0 0 .027.134 4 4 0 1 0 1.946 0 1.026 1.026 0 0 0 .027-.134v-5.586l8-8v23.586a1.026 1.026 0 0 0 .027.134 4 4 0 1 0 1.946 0 1.026 1.026 0 0 0 .027-.134v-23.586l8 8v3.586a1.026 1.026 0 0 0 .027.134 4 4 0 1 0 1.946 0 1.026 1.026 0 0 0 .027-.134v-4a1 1 0 0 0 -.293-.707l-9.707-9.707v-6.586h13.586l8.414 8.414v4.586a1.026 1.026 0 0 0 .027.134 4 4 0 1 0 1.946 0zm-46.973 7.866a2 2 0 1 1 -2-2 2 2 0 0 1 2 2zm14 6a2 2 0 1 1 -2-2 2 2 0 0 1 2 2zm20-2a2 2 0 1 1 -2-2 2 2 0 0 1 2 2zm-18-38a6 6 0 1 1 6 6 6.006 6.006 0 0 1 -6-6zm8 50a2 2 0 1 1 -2-2 2 2 0 0 1 2 2zm22-18a2 2 0 1 1 2-2 2 2 0 0 1 -2 2z" fill="#004fac"/><path d="m8 48a1 1 0 0 0 -1 1v3a1 1 0 0 0 2 0v-3a1 1 0 0 0 -1-1z" fill="#004fac"/><path d="m56 26a1 1 0 0 0 1-1v-3a1 1 0 0 0 -2 0v3a1 1 0 0 0 1 1z" fill="#004fac"/></g></svg>