<svg height="512" viewBox="0 0 64 64" width="512" xmlns="http://www.w3.org/2000/svg"><g id="Robot_hand" data-name="Robot hand"><path d="m21 32v19a4 4 0 0 0 4 4h18.47a4 4 0 0 0 3.97-3.5l2.56-19.5zm7 12a2 2 0 1 1 2-2 2.006 2.006 0 0 1 -2 2zm13-3a2 2 0 1 1 2-2 2.006 2.006 0 0 1 -2 2z" fill="#57a4ff"/><path d="m27 55h15v7h-15z" fill="#57a4ff"/><path d="m31 2h1a2 2 0 0 1 2 2v24a0 0 0 0 1 0 0h-5a0 0 0 0 1 0 0v-24a2 2 0 0 1 2-2z" fill="#57a4ff"/><path d="m23 7h1a2 2 0 0 1 2 2v19a0 0 0 0 1 0 0h-5a0 0 0 0 1 0 0v-19a2 2 0 0 1 2-2z" fill="#57a4ff"/><path d="m39 7h1a2 2 0 0 1 2 2v19a0 0 0 0 1 0 0h-5a0 0 0 0 1 0 0v-19a2 2 0 0 1 2-2z" fill="#57a4ff"/><path d="m47 11h1a2 2 0 0 1 2 2v15a0 0 0 0 1 0 0h-5a0 0 0 0 1 0 0v-15a2 2 0 0 1 2-2z" fill="#57a4ff"/><path d="m12 26h1a2 2 0 0 1 2 2v13a0 0 0 0 1 0 0h-5a0 0 0 0 1 0 0v-13a2 2 0 0 1 2-2z" fill="#57a4ff" transform="matrix(.926 -.378 .378 .926 -11.74 7.215)"/><g fill="#004fac"><path d="m50 29a1 1 0 0 0 1-1v-15a3 3 0 0 0 -3-3h-1a3 3 0 0 0 -3 3v15a1 1 0 0 0 1 1h2v2h-6v-2h1a1 1 0 0 0 1-1v-19a3 3 0 0 0 -3-3h-1a3 3 0 0 0 -3 3v19a1 1 0 0 0 1 1h2v2h-6v-2h1a1 1 0 0 0 1-1v-24a3 3 0 0 0 -3-3h-1a3 3 0 0 0 -3 3v24a1 1 0 0 0 1 1h2v2h-6v-2h1a1 1 0 0 0 1-1v-19a3 3 0 0 0 -3-3h-1a3 3 0 0 0 -3 3v19a1 1 0 0 0 1 1h2v2h-2a1 1 0 0 0 -1 1v10.234l-2.593-1.556.621-.254a1 1 0 0 0 .548-1.3l-4.916-12.039a3 3 0 0 0 -3.911-1.643l-.927.378a3 3 0 0 0 -1.642 3.911l4.92 12.036a1 1 0 0 0 .539.544 1.017 1.017 0 0 0 .387.078.992.992 0 0 0 .378-.075l1.789-.73a1 1 0 0 0 .3.273l4.507 2.709v6.434a5.006 5.006 0 0 0 5 5h1v6a1 1 0 0 0 1 1h15a1 1 0 0 0 1-1v-6h.469a5.007 5.007 0 0 0 4.961-4.374l2.562-19.5a1 1 0 0 0 -.992-1.126h-1v-2zm-12-2v-9h1a1 1 0 0 0 0-2h-1v-7a1 1 0 0 1 1-1h1a1 1 0 0 1 1 1v18zm-8 0v-8h1a1 1 0 0 0 0-2h-1v-13a1 1 0 0 1 1-1h1a1 1 0 0 1 1 1v23zm-8 0v-18a1 1 0 0 1 1-1h1a1 1 0 0 1 1 1v8h-1a1 1 0 0 0 0 2h1v8zm-12.968 1.976a1 1 0 0 1 .547-1.3l.926-.378a1 1 0 0 1 1.3.547l4.542 11.105-2.777 1.135zm31.968 32.024h-13v-5h13zm5.446-9.628a3 3 0 0 1 -2.977 2.628h-18.469a3 3 0 0 1 -3-3v-18h26.86zm-.446-24.372v-14a1 1 0 0 1 1-1h1a1 1 0 0 1 1 1v5h-1a1 1 0 0 0 0 2h1v7z"/><path d="m24 36h7a1 1 0 0 0 0-2h-7a1 1 0 0 0 0 2z"/><path d="m34 36h1a1 1 0 0 0 0-2h-1a1 1 0 0 0 0 2z"/><path d="m31.555 48.168-2.555-1.703v-1.465a.9.9 0 0 0 -.035-.173 3 3 0 1 0 -1.93 0 .9.9 0 0 0 -.035.173v2a1 1 0 0 0 .445.832l2.555 1.703v1.465a1 1 0 0 0 2 0v-2a1 1 0 0 0 -.445-.832zm-3.555-7.168a1 1 0 1 1 -1 1 1 1 0 0 1 1-1z"/><path d="m40 44.586-3.707 3.707a1 1 0 0 0 -.293.707v2a1 1 0 0 0 2 0v-1.586l3.707-3.707a1 1 0 0 0 .293-.707v-3a.9.9 0 0 0 -.035-.173 3 3 0 1 0 -1.93 0 .9.9 0 0 0 -.035.173zm1-6.586a1 1 0 1 1 -1 1 1 1 0 0 1 1-1z"/><path d="m34 52a1 1 0 0 0 1-1v-9a1 1 0 0 0 -2 0v9a1 1 0 0 0 1 1z"/><path d="m43 44v4a1 1 0 0 0 2 0v-4a1 1 0 0 0 -2 0z"/><path d="m25 48a1 1 0 0 0 -1 1v1a1 1 0 0 0 2 0v-1a1 1 0 0 0 -1-1z"/></g></g></svg>