<svg height="512" viewBox="0 0 64 64" width="512" xmlns="http://www.w3.org/2000/svg"><path d="m20 8v10h24v-10zm5 7a2 2 0 1 1 2-2 2.006 2.006 0 0 1 -2 2zm14 0a2 2 0 1 1 2-2 2.006 2.006 0 0 1 -2 2z" fill="#57a4ff"/><path d="m17 36h30v26h-30z" fill="#57a4ff"/><path d="m9 36h8a0 0 0 0 1 0 0v10a0 0 0 0 1 0 0h-10a0 0 0 0 1 0 0v-8a2 2 0 0 1 2-2z" fill="#57a4ff"/><path d="m47 36h8a2 2 0 0 1 2 2v8a0 0 0 0 1 0 0h-10a0 0 0 0 1 0 0v-10a0 0 0 0 1 0 0z" fill="#57a4ff"/><g fill="#004fac"><path d="m39 16a3 3 0 1 0 -3-3 3 3 0 0 0 3 3zm0-4a1 1 0 1 1 -1 1 1 1 0 0 1 1-1z"/><path d="m28 13a3 3 0 1 0 -3 3 3 3 0 0 0 3-3zm-3 1a1 1 0 1 1 1-1 1 1 0 0 1 -1 1z"/><path d="m55 35h-20v-4h3a1 1 0 0 0 1-1v-11h5a1 1 0 0 0 1-1v-10a1 1 0 0 0 -1-1h-5v-5a1 1 0 0 0 -1-1h-12a1 1 0 0 0 -1 1v5h-5a1 1 0 0 0 -1 1v10a1 1 0 0 0 1 1h5v11a1 1 0 0 0 1 1h3v4h-20a3 3 0 0 0 -3 3v8a1 1 0 0 0 1 1v15a1 1 0 0 0 1 1h4a1 1 0 0 0 1-1v-15h3v15a1 1 0 0 0 1 1h30a1 1 0 0 0 1-1v-15h3v15a1 1 0 0 0 1 1h4a1 1 0 0 0 1-1v-15a1 1 0 0 0 1-1v-8a3 3 0 0 0 -3-3zm-28-32h10v4h-10zm-6 6h22v8h-22zm6 10h10v10h-10zm4 12h2v4h-2zm-20 30h-2v-14h2zm-3-16v-7a1 1 0 0 1 1-1h7v8zm38 16h-28v-24h28zm2-24h7a1 1 0 0 1 1 1v7h-8zm7 24h-2v-14h2z"/><path d="m34 26a1 1 0 0 0 0-2h-4a1 1 0 0 0 0 2z"/><path d="m28 58h-8a1 1 0 0 0 0 2h8a1 1 0 0 0 0-2z"/><path d="m32 58h-1a1 1 0 0 0 0 2h1a1 1 0 0 0 0-2z"/></g></svg>