<svg height="512" viewBox="0 0 64 64" width="512" xmlns="http://www.w3.org/2000/svg"><g id="Robot-2" data-name="Robot"><path d="m11 22v10h18v-10zm5 7a2 2 0 1 1 2-2 2.006 2.006 0 0 1 -2 2zm8 0a2 2 0 1 1 2-2 2.006 2.006 0 0 1 -2 2z" fill="#57a4ff"/><path d="m12 42h16v20h-16z" fill="#57a4ff"/><path d="m4 42h8a0 0 0 0 1 0 0v10a0 0 0 0 1 0 0h-10a0 0 0 0 1 0 0v-8a2 2 0 0 1 2-2z" fill="#57a4ff"/><path d="m28 42h8a2 2 0 0 1 2 2v8a0 0 0 0 1 0 0h-10a0 0 0 0 1 0 0v-10a0 0 0 0 1 0 0z" fill="#57a4ff"/><path d="m16 18h8a2 2 0 0 1 2 2v2a0 0 0 0 1 0 0h-12a0 0 0 0 1 0 0v-2a2 2 0 0 1 2-2z" fill="#57a4ff"/><path d="m41 22h10v3h-10z" fill="#57a4ff"/><g fill="#004fac"><path d="m54 13a8 8 0 0 0 -8.133-8 8.088 8.088 0 0 0 -7.861 7.708 7.948 7.948 0 0 0 2.809 6.377 3.275 3.275 0 0 1 1.127 1.915h-.942a1 1 0 0 0 -1 1v3a1 1 0 0 0 1 1h1v2a1 1 0 0 0 1 1h6a1 1 0 0 0 1-1v-2h1a1 1 0 0 0 1-1v-3a1 1 0 0 0 -1-1h-.945a3.147 3.147 0 0 1 1.093-1.883 7.969 7.969 0 0 0 2.852-6.117zm-6 14h-4v-1h4zm2-3h-8v-1h8zm-.139-6.414a5.13 5.13 0 0 0 -1.838 3.414h-4.047a5.238 5.238 0 0 0 -1.866-3.437 5.964 5.964 0 0 1 -2.11-4.783 6 6 0 0 1 10.209-4.058 5.995 5.995 0 0 1 -.348 8.864z"/><path d="m46 1a16 16 0 1 0 16 16 16.019 16.019 0 0 0 -16-16zm0 30a14 14 0 1 1 14-14 14.015 14.015 0 0 1 -14 14z"/><path d="m24 24a3 3 0 1 0 3 3 3 3 0 0 0 -3-3zm0 4a1 1 0 1 1 1-1 1 1 0 0 1 -1 1z"/><path d="m16 24a3 3 0 1 0 3 3 3 3 0 0 0 -3-3zm0 4a1 1 0 1 1 1-1 1 1 0 0 1 -1 1z"/><path d="m36 41h-13v-2h3a1 1 0 0 0 1-1v-5h2a1 1 0 0 0 1-1v-10a1 1 0 0 0 -1-1h-2v-1a3 3 0 0 0 -3-3h-3v-2a1 1 0 0 0 -2 0v2h-3a3 3 0 0 0 -3 3v1h-2a1 1 0 0 0 -1 1v10a1 1 0 0 0 1 1h2v5a1 1 0 0 0 1 1h3v2h-13a3 3 0 0 0 -3 3v8a1 1 0 0 0 1 1h1v9a1 1 0 0 0 1 1h4a1 1 0 0 0 1-1v-9h2v9a1 1 0 0 0 1 1h16a1 1 0 0 0 1-1v-9h2v9a1 1 0 0 0 1 1h4a1 1 0 0 0 1-1v-9h1a1 1 0 0 0 1-1v-8a3 3 0 0 0 -3-3zm-29 20h-2v-8h2zm4-10h-8v-7a1 1 0 0 1 1-1h7zm4-31a1 1 0 0 1 1-1h8a1 1 0 0 1 1 1v1h-10zm-3 11v-8h16v8zm3 6v-4h10v4zm6 2v2h-2v-2zm6 22h-14v-18h14zm8 0h-2v-8h2zm2-10h-8v-8h7a1 1 0 0 1 1 1z"/><path d="m22 34h-4a1 1 0 0 0 0 2h4a1 1 0 0 0 0-2z"/><path d="m15 60h4a1 1 0 0 0 0-2h-4a1 1 0 0 0 0 2z"/><path d="m22 60h1a1 1 0 0 0 0-2h-1a1 1 0 0 0 0 2z"/></g></g></svg>