<svg height="512" viewBox="0 0 64 64" width="512" xmlns="http://www.w3.org/2000/svg"><g id="Robot-3" data-name="Robot"><path d="m57 19v-4h-3.262a7.968 7.968 0 0 0 -.852-2.058l2.306-2.306-2.828-2.828-2.306 2.306a7.968 7.968 0 0 0 -2.058-.852v-3.262h-4v3.262a7.968 7.968 0 0 0 -2.058.852l-2.306-2.306-2.828 2.828 2.306 2.306a7.968 7.968 0 0 0 -.852 2.058h-3.262v4h3.262a7.968 7.968 0 0 0 .852 2.058l-2.306 2.306 2.828 2.828 2.306-2.306a7.968 7.968 0 0 0 2.058.852v3.262h4v-3.262a7.968 7.968 0 0 0 2.058-.852l2.306 2.306 2.828-2.828-2.306-2.306a7.968 7.968 0 0 0 .852-2.058z" fill="#57a4ff"/><circle cx="46" cy="17" fill="#57a4ff" r="2"/><path d="m11 22v10h18v-10zm5 7a2 2 0 1 1 2-2 2.006 2.006 0 0 1 -2 2zm8 0a2 2 0 1 1 2-2 2.006 2.006 0 0 1 -2 2z" fill="#57a4ff"/><path d="m12 42h16v20h-16z" fill="#57a4ff"/><path d="m4 42h8a0 0 0 0 1 0 0v10a0 0 0 0 1 0 0h-10a0 0 0 0 1 0 0v-8a2 2 0 0 1 2-2z" fill="#57a4ff"/><path d="m28 42h8a2 2 0 0 1 2 2v8a0 0 0 0 1 0 0h-10a0 0 0 0 1 0 0v-10a0 0 0 0 1 0 0z" fill="#57a4ff"/><path d="m16 18h8a2 2 0 0 1 2 2v2a0 0 0 0 1 0 0h-12a0 0 0 0 1 0 0v-2a2 2 0 0 1 2-2z" fill="#57a4ff"/><g fill="#004fac"><path d="m24 30a3 3 0 1 0 -3-3 3 3 0 0 0 3 3zm0-4a1 1 0 1 1 -1 1 1 1 0 0 1 1-1z"/><path d="m19 27a3 3 0 1 0 -3 3 3 3 0 0 0 3-3zm-4 0a1 1 0 1 1 1 1 1 1 0 0 1 -1-1z"/><path d="m36 41h-13v-2h3a1 1 0 0 0 1-1v-5h2a1 1 0 0 0 1-1v-10a1 1 0 0 0 -1-1h-2v-1a3 3 0 0 0 -3-3h-3v-2a1 1 0 0 0 -2 0v2h-3a3 3 0 0 0 -3 3v1h-2a1 1 0 0 0 -1 1v10a1 1 0 0 0 1 1h2v5a1 1 0 0 0 1 1h3v2h-13a3 3 0 0 0 -3 3v8a1 1 0 0 0 1 1h1v9a1 1 0 0 0 1 1h4a1 1 0 0 0 1-1v-9h2v9a1 1 0 0 0 1 1h16a1 1 0 0 0 1-1v-9h2v9a1 1 0 0 0 1 1h4a1 1 0 0 0 1-1v-9h1a1 1 0 0 0 1-1v-8a3 3 0 0 0 -3-3zm-21-21a1 1 0 0 1 1-1h8a1 1 0 0 1 1 1v1h-10zm-3 3h16v8h-16zm3 10h10v4h-10zm4 6h2v2h-2zm-12 22h-2v-8h2zm1-10h-5v-7a1 1 0 0 1 1-1h7v8zm19 10h-14v-18h14zm8 0h-2v-8h2zm2-10h-8v-8h7a1 1 0 0 1 1 1z"/><path d="m22 36a1 1 0 0 0 0-2h-4a1 1 0 0 0 0 2z"/><path d="m19 58h-4a1 1 0 0 0 0 2h4a1 1 0 0 0 0-2z"/><path d="m23 58h-1a1 1 0 0 0 0 2h1a1 1 0 0 0 0-2z"/><path d="m46 1a16 16 0 1 0 16 16 16.019 16.019 0 0 0 -16-16zm0 30a14 14 0 1 1 14-14 14.015 14.015 0 0 1 -14 14z"/><path d="m57 14h-2.522a9.12 9.12 0 0 0 -.363-.873l1.785-1.784a1 1 0 0 0 0-1.414l-2.829-2.829a1 1 0 0 0 -1.414 0l-1.784 1.784a9.266 9.266 0 0 0 -.873-.362v-2.522a1 1 0 0 0 -1-1h-4a1 1 0 0 0 -1 1v2.522a9.266 9.266 0 0 0 -.873.362l-1.784-1.784a1 1 0 0 0 -1.414 0l-2.829 2.829a1 1 0 0 0 0 1.414l1.784 1.784a9.12 9.12 0 0 0 -.363.873h-2.521a1 1 0 0 0 -1 1v4a1 1 0 0 0 1 1h2.522a9.12 9.12 0 0 0 .363.873l-1.785 1.784a1 1 0 0 0 0 1.414l2.829 2.829a1 1 0 0 0 1.414 0l1.784-1.783a9.266 9.266 0 0 0 .873.362v2.521a1 1 0 0 0 1 1h4a1 1 0 0 0 1-1v-2.522a9.266 9.266 0 0 0 .873-.362l1.784 1.784a1 1 0 0 0 1.414 0l2.829-2.829a1 1 0 0 0 0-1.414l-1.784-1.784a9.12 9.12 0 0 0 .362-.873h2.522a1 1 0 0 0 1-1v-4a1 1 0 0 0 -1-1zm-1 4h-2.262a1 1 0 0 0 -.967.75 7 7 0 0 1 -.747 1.8 1 1 0 0 0 .155 1.216l1.6 1.6-1.414 1.414-1.6-1.6a1 1 0 0 0 -1.216-.154 7 7 0 0 1 -1.8.745 1 1 0 0 0 -.75.968v2.261h-1.999v-2.262a1 1 0 0 0 -.75-.968 7 7 0 0 1 -1.8-.745 1 1 0 0 0 -1.216.154l-1.6 1.6-1.414-1.414 1.6-1.6a1 1 0 0 0 .155-1.216 7 7 0 0 1 -.747-1.8 1 1 0 0 0 -.967-.75h-2.261v-1.999h2.262a1 1 0 0 0 .967-.75 7 7 0 0 1 .747-1.8 1 1 0 0 0 -.155-1.216l-1.6-1.6 1.414-1.414 1.6 1.6a1 1 0 0 0 1.216.154 7 7 0 0 1 1.8-.745 1 1 0 0 0 .749-.967v-2.262h2v2.262a1 1 0 0 0 .75.968 7 7 0 0 1 1.8.745 1 1 0 0 0 1.216-.154l1.6-1.6 1.414 1.414-1.6 1.6a1 1 0 0 0 -.155 1.216 7 7 0 0 1 .747 1.8 1 1 0 0 0 .967.75h2.261z"/><path d="m46 14a3 3 0 1 0 3 3 3 3 0 0 0 -3-3zm0 4a1 1 0 1 1 1-1 1 1 0 0 1 -1 1z"/></g></g></svg>