<svg height="512" viewBox="0 0 64 64" width="512" xmlns="http://www.w3.org/2000/svg"><g id="Robot-4" data-name="Robot"><g fill="#57a4ff"><circle cx="47" cy="7" r="2"/><circle cx="47" cy="23" r="2"/><circle cx="39" cy="23" r="2"/><circle cx="55" cy="23" r="2"/><path d="m11 22v10h18v-10zm5 7a2 2 0 1 1 2-2 2.006 2.006 0 0 1 -2 2zm8 0a2 2 0 1 1 2-2 2.006 2.006 0 0 1 -2 2z"/><path d="m12 42h16v20h-16z"/><path d="m4 42h8a0 0 0 0 1 0 0v10a0 0 0 0 1 0 0h-10a0 0 0 0 1 0 0v-8a2 2 0 0 1 2-2z"/><path d="m28 42h8a2 2 0 0 1 2 2v8a0 0 0 0 1 0 0h-10a0 0 0 0 1 0 0v-10a0 0 0 0 1 0 0z"/><path d="m16 18h8a2 2 0 0 1 2 2v2a0 0 0 0 1 0 0h-12a0 0 0 0 1 0 0v-2a2 2 0 0 1 2-2z"/></g><path d="m47 1a16 16 0 1 0 16 16 16.019 16.019 0 0 0 -16-16zm0 30a14 14 0 1 1 14-14 14.015 14.015 0 0 1 -14 14z" fill="#004fac"/><path d="m55.965 20.173a.915.915 0 0 0 .035-.173v-2a1 1 0 0 0 -.725-.961l-7-2a.95.95 0 0 0 -.275-.022v-5.017a.9.9 0 0 0 -.035-.173 3 3 0 1 0 -1.93 0 .9.9 0 0 0 -.035.173v3.307l-7.351 2.756a1 1 0 0 0 -.649.937v3a.9.9 0 0 0 .035.173 3 3 0 1 0 1.93 0 .915.915 0 0 0 .035-.173v-2.307l6-2.25v4.557a.9.9 0 0 0 .035.173 3 3 0 1 0 1.93 0 .915.915 0 0 0 .035-.173v-2.96l6 1.714v1.246a.9.9 0 0 0 .035.173 3 3 0 1 0 1.93 0zm-16.965 3.827a1 1 0 1 1 1-1 1 1 0 0 1 -1 1zm8-18a1 1 0 1 1 -1 1 1 1 0 0 1 1-1zm0 18a1 1 0 1 1 1-1 1 1 0 0 1 -1 1zm8 0a1 1 0 1 1 1-1 1 1 0 0 1 -1 1z" fill="#004fac"/><path d="m52 14a1 1 0 0 0 1-1v-2a1 1 0 0 0 -2 0v2a1 1 0 0 0 1 1z" fill="#004fac"/><path d="m24 30a3 3 0 1 0 -3-3 3 3 0 0 0 3 3zm0-4a1 1 0 1 1 -1 1 1 1 0 0 1 1-1z" fill="#004fac"/><path d="m19 27a3 3 0 1 0 -3 3 3 3 0 0 0 3-3zm-4 0a1 1 0 1 1 1 1 1 1 0 0 1 -1-1z" fill="#004fac"/><path d="m36 41h-13v-2h3a1 1 0 0 0 1-1v-5h2a1 1 0 0 0 1-1v-10a1 1 0 0 0 -1-1h-2v-1a3 3 0 0 0 -3-3h-3v-2a1 1 0 0 0 -2 0v2h-3a3 3 0 0 0 -3 3v1h-2a1 1 0 0 0 -1 1v10a1 1 0 0 0 1 1h2v5a1 1 0 0 0 1 1h3v2h-13a3 3 0 0 0 -3 3v8a1 1 0 0 0 1 1h1v9a1 1 0 0 0 1 1h4a1 1 0 0 0 1-1v-9h2v9a1 1 0 0 0 1 1h16a1 1 0 0 0 1-1v-9h2v9a1 1 0 0 0 1 1h4a1 1 0 0 0 1-1v-9h1a1 1 0 0 0 1-1v-8a3 3 0 0 0 -3-3zm-21-21a1 1 0 0 1 1-1h8a1 1 0 0 1 1 1v1h-10zm-3 3h16v8h-16zm3 10h10v4h-10zm4 6h2v2h-2zm-12 22h-2v-8h2zm1-10h-5v-7a1 1 0 0 1 1-1h7v8zm19 10h-14v-18h14zm8 0h-2v-8h2zm2-10h-8v-8h7a1 1 0 0 1 1 1z" fill="#004fac"/><path d="m22 36a1 1 0 0 0 0-2h-4a1 1 0 0 0 0 2z" fill="#004fac"/><path d="m19 58h-4a1 1 0 0 0 0 2h4a1 1 0 0 0 0-2z" fill="#004fac"/><path d="m23 58h-1a1 1 0 0 0 0 2h1a1 1 0 0 0 0-2z" fill="#004fac"/></g></svg>