<svg height="512" viewBox="0 0 64 64" width="512" xmlns="http://www.w3.org/2000/svg"><g id="Robotic_arm" data-name="Robotic arm"><path d="m32 27a8 8 0 1 0 8 8 8 8 0 0 0 -8-8zm0 13a5 5 0 1 1 5-5 5 5 0 0 1 -5 5z" fill="#57a4ff"/><path d="m29 17h6v10h-6z" fill="#57a4ff"/><g fill="#004fac"><path d="m46 1h-28a1 1 0 0 0 -1 1v8a1 1 0 0 0 1 1h13v5h-2a1 1 0 0 0 -1 1v9.95a8.99 8.99 0 0 0 3.012 16.993.578.578 0 0 0 -.012.057v3.059a9 9 0 0 0 -4.953 15.691 1 1 0 0 0 1.324-1.5 7 7 0 1 1 9.258 0 1 1 0 0 0 1.324 1.5 9 9 0 0 0 -4.953-15.691v-3.059a.578.578 0 0 0 -.012-.057 8.99 8.99 0 0 0 3.012-16.993v-9.95a1 1 0 0 0 -1-1h-2v-5h13a1 1 0 0 0 1-1v-8a1 1 0 0 0 -1-1zm-7 34a7 7 0 1 1 -7-7 7.008 7.008 0 0 1 7 7zm-5-17v8h-4v-8zm11-9h-26v-6h26z"/><path d="m26 35a6 6 0 1 0 6-6 6.006 6.006 0 0 0 -6 6zm10 0a4 4 0 1 1 -4-4 4 4 0 0 1 4 4z"/></g></g></svg>