<svg height="512" viewBox="0 0 64 64" width="512" xmlns="http://www.w3.org/2000/svg"><g fill="#57a4ff"><path d="m30 32a13.945 13.945 0 0 1 -3.57 9.33 10.607 10.607 0 0 0 -7.81-9.33 4.661 4.661 0 0 0 2.63-4.38 5.25 5.25 0 0 0 -10.5 0 4.661 4.661 0 0 0 2.63 4.38 10.607 10.607 0 0 0 -7.81 9.33 14 14 0 1 1 24.43-9.33z"/><path d="m18.62 32a4.661 4.661 0 0 0 2.63-4.38 5.25 5.25 0 0 0 -10.5 0 4.661 4.661 0 0 0 2.63 4.38 10.607 10.607 0 0 0 -7.81 9.33v.01h.01a13.98 13.98 0 0 0 20.84 0h.01v-.01a10.607 10.607 0 0 0 -7.81-9.33zm-2.62 13a12.947 12.947 0 0 1 -9.37-4.01 9.518 9.518 0 0 1 6.97-8.02.989.989 0 0 0 .77-.85 1.012 1.012 0 0 0 -.53-1.01 3.662 3.662 0 0 1 -2.09-3.49 4.25 4.25 0 0 1 8.5 0 3.662 3.662 0 0 1 -2.09 3.49 1.012 1.012 0 0 0 -.53 1.01.989.989 0 0 0 .77.85 9.518 9.518 0 0 1 6.97 8.02 12.947 12.947 0 0 1 -9.37 4.01z"/><path d="m5.57 41.33c0 .01 0 .01.01.01h-.01z"/><path d="m26.43 41.33v.01h-.01c.01 0 .01 0 .01-.01z"/><path d="m59 34v-4h-3.262a7.968 7.968 0 0 0 -.852-2.058l2.306-2.306-2.828-2.828-2.306 2.306a7.968 7.968 0 0 0 -2.058-.852v-3.262h-4v3.262a7.968 7.968 0 0 0 -2.058.852l-2.306-2.306-2.828 2.828 2.306 2.306a7.968 7.968 0 0 0 -.852 2.058h-3.262v4h3.262a7.968 7.968 0 0 0 .852 2.058l-2.306 2.306 2.828 2.828 2.306-2.306a7.968 7.968 0 0 0 2.058.852v3.262h4v-3.262a7.968 7.968 0 0 0 2.058-.852l2.306 2.306 2.828-2.828-2.306-2.306a7.968 7.968 0 0 0 .852-2.058z"/><circle cx="48" cy="32" r="2"/></g><path d="m48 17a14.97 14.97 0 0 0 -11.97 24h-5.03a1 1 0 0 0 0 2h6.84a14.448 14.448 0 0 0 1.2 1h-2.04a1 1 0 0 0 0 2h5.66a14.817 14.817 0 0 0 5.34 1 15 15 0 0 0 0-30zm0 28a12.91 12.91 0 0 1 -4.41-.79 1.043 1.043 0 0 0 -.57-.21 12.983 12.983 0 1 1 4.98 1z" fill="#004fac"/><path d="m31 22h-3.85a14.329 14.329 0 0 0 -2.19-2h4.04a1 1 0 0 0 0-2h-7a1.115 1.115 0 0 0 -.41.09 14.847 14.847 0 0 0 -5.59-1.09 14.977 14.977 0 0 0 -11.25 24.89.869.869 0 0 0 .16.17 14.918 14.918 0 0 0 22.18 0 .869.869 0 0 0 .16-.17 14.909 14.909 0 0 0 1.42-17.89h2.33a1 1 0 0 0 0-2zm-4.05 16.98a11.59 11.59 0 0 0 -6.22-7.32 5.733 5.733 0 0 0 1.52-4.04 6.25 6.25 0 0 0 -12.5 0 5.733 5.733 0 0 0 1.52 4.04 11.59 11.59 0 0 0 -6.22 7.32 13 13 0 1 1 21.9 0zm-10.95 6.02a12.947 12.947 0 0 1 -9.37-4.01 9.518 9.518 0 0 1 6.97-8.02.989.989 0 0 0 .77-.85 1.012 1.012 0 0 0 -.53-1.01 3.662 3.662 0 0 1 -2.09-3.49 4.25 4.25 0 0 1 8.5 0 3.662 3.662 0 0 1 -2.09 3.49 1.012 1.012 0 0 0 -.53 1.01.989.989 0 0 0 .77.85 9.518 9.518 0 0 1 6.97 8.02 12.947 12.947 0 0 1 -9.37 4.01z" fill="#004fac"/><path d="m59 29h-2.52q-.165-.45-.36-.87l1.78-1.79a1 1 0 0 0 0-1.41l-2.83-2.83a1 1 0 0 0 -1.41 0l-1.79 1.78q-.42-.195-.87-.36v-2.52a1 1 0 0 0 -1-1h-4a1 1 0 0 0 -1 1v2.52q-.45.165-.87.36l-1.79-1.78a1 1 0 0 0 -1.41 0l-2.83 2.83a1 1 0 0 0 0 1.41l1.78 1.79q-.2.42-.36.87h-2.52a1 1 0 0 0 -1 1v4a1 1 0 0 0 1 1h2.52q.165.45.36.87l-1.78 1.79a1 1 0 0 0 0 1.41l2.83 2.83a1 1 0 0 0 1.41 0l1.79-1.78q.42.2.87.36v2.52a1 1 0 0 0 1 1h4a1 1 0 0 0 1-1v-2.52q.45-.165.87-.36l1.79 1.78a1 1 0 0 0 1.41 0l2.83-2.83a1 1 0 0 0 0-1.41l-1.78-1.79q.2-.42.36-.87h2.52a1 1 0 0 0 1-1v-4a1 1 0 0 0 -1-1zm-1 4h-2.26a1 1 0 0 0 -.97.75 6.6 6.6 0 0 1 -.75 1.8 1 1 0 0 0 .16 1.21l1.6 1.6-1.42 1.42-1.6-1.6a1 1 0 0 0 -1.21-.16 6.6 6.6 0 0 1 -1.8.75 1 1 0 0 0 -.75.97v2.26h-2v-2.26a1 1 0 0 0 -.75-.97 6.6 6.6 0 0 1 -1.8-.75 1 1 0 0 0 -1.21.16l-1.6 1.6-1.42-1.42 1.6-1.6a1 1 0 0 0 .16-1.21 6.6 6.6 0 0 1 -.75-1.8 1 1 0 0 0 -.97-.75h-2.26v-2h2.26a1 1 0 0 0 .97-.75 6.6 6.6 0 0 1 .75-1.8 1 1 0 0 0 -.16-1.21l-1.6-1.6 1.42-1.42 1.6 1.6a1 1 0 0 0 1.21.16 6.6 6.6 0 0 1 1.8-.75 1 1 0 0 0 .75-.97v-2.26h2v2.26a1 1 0 0 0 .75.97 6.6 6.6 0 0 1 1.8.75 1 1 0 0 0 1.21-.16l1.6-1.6 1.42 1.42-1.6 1.6a1 1 0 0 0 -.16 1.21 6.6 6.6 0 0 1 .75 1.8 1 1 0 0 0 .97.75h2.26z" fill="#004fac"/><path d="m48 29a3 3 0 1 0 3 3 3.009 3.009 0 0 0 -3-3zm0 4a1 1 0 1 1 1-1 1 1 0 0 1 -1 1z" fill="#004fac"/><path d="m32 20h1a1 1 0 0 0 0-2h-1a1 1 0 0 0 0 2z" fill="#004fac"/><path d="m34 44h-1a1 1 0 0 0 0 2h1a1 1 0 0 0 0-2z" fill="#004fac"/></svg>