<svg height="512" viewBox="0 0 64 64" width="512" xmlns="http://www.w3.org/2000/svg"><g id="Setting-2" data-name="Setting"><path d="m27 18v-4h-3.262a7.968 7.968 0 0 0 -.852-2.058l2.306-2.306-2.828-2.828-2.306 2.306a7.968 7.968 0 0 0 -2.058-.852v-3.262h-4v3.262a7.968 7.968 0 0 0 -2.058.852l-2.306-2.306-2.828 2.828 2.306 2.306a7.968 7.968 0 0 0 -.852 2.058h-3.262v4h3.262a7.968 7.968 0 0 0 .852 2.058l-2.306 2.306 2.828 2.828 2.306-2.306a7.968 7.968 0 0 0 2.058.852v3.262h4v-3.262a7.968 7.968 0 0 0 2.058-.852l2.306 2.306 2.828-2.828-2.306-2.306a7.968 7.968 0 0 0 .852-2.058z" fill="#57a4ff"/><circle cx="16" cy="16" fill="#57a4ff" r="2"/><circle cx="48" cy="16" fill="#57a4ff" r="11"/><circle cx="48" cy="16" fill="#57a4ff" r="11"/><circle cx="48" cy="16" fill="#57a4ff" r="2"/><circle cx="16" cy="48" fill="#57a4ff" r="2"/><path d="m59 50v-4h-3.262a7.968 7.968 0 0 0 -.852-2.058l2.306-2.306-2.828-2.828-2.306 2.306a7.968 7.968 0 0 0 -2.058-.852v-3.262h-4v3.262a7.968 7.968 0 0 0 -2.058.852l-2.306-2.306-2.828 2.828 2.306 2.306a7.968 7.968 0 0 0 -.852 2.058h-3.262v4h3.262a7.968 7.968 0 0 0 .852 2.058l-2.306 2.306 2.828 2.828 2.306-2.306a7.968 7.968 0 0 0 2.058.852v3.262h4v-3.262a7.968 7.968 0 0 0 2.058-.852l2.306 2.306 2.828-2.828-2.306-2.306a7.968 7.968 0 0 0 .852-2.058z" fill="#57a4ff"/><circle cx="48" cy="48" fill="#57a4ff" r="2"/><circle cx="32" cy="32" fill="#57a4ff" r="2"/><circle cx="16" cy="48" fill="#57a4ff" r="11"/><g fill="#004fac"><path d="m16 31a15 15 0 1 0 -15-15 15.017 15.017 0 0 0 15 15zm0-28a13 13 0 1 1 -13 13 13.015 13.015 0 0 1 13-13z"/><path d="m10.343 25.9 1.784-1.783a9.266 9.266 0 0 0 .873.362v2.521a1 1 0 0 0 1 1h4a1 1 0 0 0 1-1v-2.522a9.266 9.266 0 0 0 .873-.362l1.784 1.784a1 1 0 0 0 1.414 0l2.829-2.829a1 1 0 0 0 0-1.414l-1.784-1.784a9.12 9.12 0 0 0 .362-.873h2.522a1 1 0 0 0 1-1v-4a1 1 0 0 0 -1-1h-2.522a9.12 9.12 0 0 0 -.363-.873l1.785-1.784a1 1 0 0 0 0-1.414l-2.829-2.829a1 1 0 0 0 -1.414 0l-1.784 1.784a9.266 9.266 0 0 0 -.873-.362v-2.522a1 1 0 0 0 -1-1h-4a1 1 0 0 0 -1 1v2.522a9.266 9.266 0 0 0 -.873.362l-1.784-1.784a1 1 0 0 0 -1.414 0l-2.829 2.829a1 1 0 0 0 0 1.414l1.784 1.784a9.12 9.12 0 0 0 -.362.873h-2.522a1 1 0 0 0 -1 1v4a1 1 0 0 0 1 1h2.522a9.12 9.12 0 0 0 .363.873l-1.785 1.784a1 1 0 0 0 0 1.414l2.829 2.829a1 1 0 0 0 1.414 0zm-.367-6.35a7 7 0 0 1 -.747-1.8 1 1 0 0 0 -.967-.75h-2.262v-2h2.262a1 1 0 0 0 .967-.75 7 7 0 0 1 .747-1.8 1 1 0 0 0 -.155-1.216l-1.6-1.6 1.415-1.412 1.6 1.6a1 1 0 0 0 1.216.154 7 7 0 0 1 1.8-.745 1 1 0 0 0 .748-.969v-2.262h2v2.262a1 1 0 0 0 .75.968 7 7 0 0 1 1.8.745 1 1 0 0 0 1.216-.154l1.6-1.6 1.414 1.414-1.6 1.6a1 1 0 0 0 -.155 1.216 7 7 0 0 1 .747 1.8 1 1 0 0 0 .967.75h2.261v2h-2.262a1 1 0 0 0 -.967.75 7 7 0 0 1 -.747 1.8 1 1 0 0 0 .155 1.216l1.6 1.6-1.414 1.414-1.6-1.6a1 1 0 0 0 -1.216-.154 7 7 0 0 1 -1.8.745 1 1 0 0 0 -.75.968v2.26h-1.999v-2.262a1 1 0 0 0 -.75-.968 7 7 0 0 1 -1.8-.745 1 1 0 0 0 -1.216.154l-1.6 1.6-1.412-1.415 1.6-1.6a1 1 0 0 0 .154-1.215z"/><path d="m16 19a3 3 0 1 0 -3-3 3 3 0 0 0 3 3zm0-4a1 1 0 1 1 -1 1 1 1 0 0 1 1-1z"/><path d="m48 31a15 15 0 1 0 -15-15 15.017 15.017 0 0 0 15 15zm0-28a13 13 0 1 1 -13 13 13.015 13.015 0 0 1 13-13z"/><path d="m41.123 25.834a.988.988 0 0 0 .572.182 1 1 0 0 0 .575-1.816 10.017 10.017 0 0 1 -2.541-2.575 1 1 0 1 0 -1.653 1.126 11.967 11.967 0 0 0 3.047 3.083z"/><path d="m55.471 22.647a10 10 0 0 1 -2.852 2.224 1 1 0 0 0 .926 1.774 12.023 12.023 0 0 0 3.42-2.668 1 1 0 0 0 -1.494-1.33z"/><path d="m37.835 11.669a1 1 0 0 0 1.354-.405 10.025 10.025 0 0 1 2.264-2.823 1 1 0 1 0 -1.31-1.511 11.971 11.971 0 0 0 -2.713 3.384 1 1 0 0 0 .405 1.355z"/><path d="m44.224 6.667a1.007 1.007 0 0 0 .343-.062 9.968 9.968 0 0 1 3.433-.605h.135a1.025 1.025 0 0 0 1.008-.99 1 1 0 0 0 -.992-1.01h-.151a11.954 11.954 0 0 0 -4.12.727 1 1 0 0 0 .344 1.94z"/><path d="m49.166 25.933a10.158 10.158 0 0 1 -3.609-.233 1 1 0 1 0 -.487 1.939 12.071 12.071 0 0 0 4.326.28 1 1 0 0 0 -.23-1.986z"/><path d="m38.271 18.317a10.083 10.083 0 0 1 -.188-3.613 1 1 0 1 0 -1.982-.258 11.85 11.85 0 0 0 -.101 1.554 12.171 12.171 0 0 0 .323 2.776 1 1 0 0 0 .973.77 1.025 1.025 0 0 0 .231-.027 1 1 0 0 0 .744-1.202z"/><path d="m57.946 14.964a1 1 0 0 0 .2.509 1 1 0 0 0 -.146.527 9.967 9.967 0 0 1 -.651 3.557 1 1 0 0 0 .579 1.29.986.986 0 0 0 .355.066 1 1 0 0 0 .935-.644 11.959 11.959 0 0 0 .782-4.269.994.994 0 0 0 -.209-.611 1 1 0 0 0 .146-.631 11.94 11.94 0 0 0 -1.221-4.158 1 1 0 1 0 -1.785.9 9.938 9.938 0 0 1 1.015 3.464z"/><path d="m51.679 6.7a9.963 9.963 0 0 1 3.065 1.918 1 1 0 0 0 1.35-1.476 11.966 11.966 0 0 0 -3.679-2.3 1 1 0 1 0 -.736 1.86z"/><path d="m45 16a3 3 0 1 0 3-3 3 3 0 0 0 -3 3zm4 0a1 1 0 1 1 -1-1 1 1 0 0 1 1 1z"/><path d="m16 33a15 15 0 1 0 15 15 15.017 15.017 0 0 0 -15-15zm0 28a13 13 0 1 1 13-13 13.015 13.015 0 0 1 -13 13z"/><path d="m16 45a3 3 0 1 0 3 3 3 3 0 0 0 -3-3zm0 4a1 1 0 1 1 1-1 1 1 0 0 1 -1 1z"/><path d="m48 33a15 15 0 1 0 15 15 15.017 15.017 0 0 0 -15-15zm0 28a13 13 0 1 1 13-13 13.015 13.015 0 0 1 -13 13z"/><path d="m53.657 38.1-1.784 1.783a9.266 9.266 0 0 0 -.873-.361v-2.522a1 1 0 0 0 -1-1h-4a1 1 0 0 0 -1 1v2.522a9.266 9.266 0 0 0 -.873.362l-1.784-1.784a1 1 0 0 0 -1.414 0l-2.829 2.829a1 1 0 0 0 0 1.414l1.784 1.784a9.12 9.12 0 0 0 -.363.873h-2.521a1 1 0 0 0 -1 1v4a1 1 0 0 0 1 1h2.522a9.12 9.12 0 0 0 .363.873l-1.785 1.784a1 1 0 0 0 0 1.414l2.829 2.829a1 1 0 0 0 1.414 0l1.784-1.783a9.266 9.266 0 0 0 .873.362v2.521a1 1 0 0 0 1 1h4a1 1 0 0 0 1-1v-2.522a9.266 9.266 0 0 0 .873-.362l1.784 1.784a1 1 0 0 0 1.414 0l2.829-2.829a1 1 0 0 0 0-1.414l-1.784-1.784a9.12 9.12 0 0 0 .362-.873h2.522a1 1 0 0 0 1-1v-4a1 1 0 0 0 -1-1h-2.522a9.12 9.12 0 0 0 -.363-.873l1.785-1.784a1 1 0 0 0 0-1.414l-2.829-2.829a1 1 0 0 0 -1.414 0zm.367 6.35a7 7 0 0 1 .747 1.8 1 1 0 0 0 .967.75h2.262v2h-2.262a1 1 0 0 0 -.967.75 7 7 0 0 1 -.747 1.8 1 1 0 0 0 .155 1.216l1.6 1.6-1.414 1.414-1.6-1.6a1 1 0 0 0 -1.216-.154 7 7 0 0 1 -1.8.745 1 1 0 0 0 -.75.968v2.261h-1.999v-2.262a1 1 0 0 0 -.75-.968 7 7 0 0 1 -1.8-.745 1 1 0 0 0 -1.216.154l-1.6 1.6-1.414-1.414 1.6-1.6a1 1 0 0 0 .155-1.216 7 7 0 0 1 -.747-1.8 1 1 0 0 0 -.967-.75h-2.261v-1.999h2.262a1 1 0 0 0 .967-.75 7 7 0 0 1 .747-1.8 1 1 0 0 0 -.155-1.216l-1.6-1.6 1.414-1.414 1.6 1.6a1 1 0 0 0 1.216.154 7 7 0 0 1 1.8-.745 1 1 0 0 0 .75-.968v-2.261h2v2.262a1 1 0 0 0 .75.968 7 7 0 0 1 1.8.745 1 1 0 0 0 1.216-.154l1.6-1.6 1.414 1.414-1.6 1.6a1 1 0 0 0 -.157 1.216z"/><path d="m48 45a3 3 0 1 0 3 3 3 3 0 0 0 -3-3zm0 4a1 1 0 1 1 1-1 1 1 0 0 1 -1 1z"/><path d="m38 32a6 6 0 1 0 -6 6 6.006 6.006 0 0 0 6-6zm-6 4a4 4 0 1 1 4-4 4 4 0 0 1 -4 4z"/><path d="m32 29a3 3 0 1 0 3 3 3 3 0 0 0 -3-3zm0 4a1 1 0 1 1 1-1 1 1 0 0 1 -1 1z"/><path d="m17.166 57.933a10.159 10.159 0 0 1 -3.609-.233 1 1 0 1 0 -.487 1.939 12.071 12.071 0 0 0 4.326.28 1 1 0 1 0 -.23-1.986z"/><path d="m23.471 54.647a10 10 0 0 1 -2.852 2.224 1 1 0 0 0 .926 1.774 12.023 12.023 0 0 0 3.42-2.668 1 1 0 1 0 -1.494-1.33z"/><path d="m23.419 40.878a1 1 0 0 0 .675-1.738 11.966 11.966 0 0 0 -3.679-2.3 1 1 0 1 0 -.736 1.86 9.963 9.963 0 0 1 3.065 1.918 1 1 0 0 0 .675.26z"/><path d="m24.931 43.5a9.938 9.938 0 0 1 1.015 3.468 1 1 0 0 0 .2.509 1 1 0 0 0 -.146.523 9.967 9.967 0 0 1 -.651 3.557 1 1 0 0 0 .579 1.29.986.986 0 0 0 .355.066 1 1 0 0 0 .935-.644 11.959 11.959 0 0 0 .782-4.269.994.994 0 0 0 -.209-.611 1 1 0 0 0 .146-.631 11.94 11.94 0 0 0 -1.221-4.158 1 1 0 1 0 -1.785.9z"/><path d="m5.835 43.669a1 1 0 0 0 1.354-.4 10.025 10.025 0 0 1 2.264-2.823 1 1 0 1 0 -1.31-1.511 11.971 11.971 0 0 0 -2.713 3.379 1 1 0 0 0 .405 1.355z"/><path d="m6.271 50.317a10.083 10.083 0 0 1 -.188-3.617 1 1 0 1 0 -1.983-.254 11.85 11.85 0 0 0 -.1 1.554 12.171 12.171 0 0 0 .323 2.776 1 1 0 0 0 .973.77 1.025 1.025 0 0 0 .231-.027 1 1 0 0 0 .744-1.202z"/><path d="m7.729 53.622a1 1 0 1 0 -1.653 1.126 11.967 11.967 0 0 0 3.047 3.086.988.988 0 0 0 .572.182 1 1 0 0 0 .575-1.816 10.017 10.017 0 0 1 -2.541-2.578z"/><path d="m16 38h.145a1 1 0 0 0 .006-2h-.151a11.954 11.954 0 0 0 -4.12.727 1 1 0 1 0 .687 1.878 9.968 9.968 0 0 1 3.433-.605z"/></g></g></svg>